<?xml version="1.0" standalone="no"?>
<!DOCTYPE svg PUBLIC "-//W3C//DTD SVG 20010904//EN"
 "http://www.w3.org/TR/2001/REC-SVG-20010904/DTD/svg10.dtd">
<svg version="1.0" xmlns="http://www.w3.org/2000/svg"
 width="1080.000000pt" height="394.000000pt" viewBox="0 0 1080.000000 394.000000"
 preserveAspectRatio="xMidYMid meet">

<g transform="translate(0.000000,394.000000) scale(0.100000,-0.100000)"
fill="#000000" stroke="none">
<path d="M6940 3175 c-5 -14 -10 -34 -10 -43 0 -9 -14 -55 -31 -102 -27 -77
-58 -183 -59 -202 0 -22 31 -3 55 35 16 23 39 58 53 77 69 99 112 170 112 184
0 8 -12 21 -27 28 -16 8 -40 22 -55 32 -28 18 -28 18 -38 -9z"/>
<path d="M7217 3192 c-16 -3 -17 -12 -10 -95 4 -51 8 -112 8 -137 l0 -45 -54
0 c-63 0 -81 -17 -66 -62 8 -21 20 -29 55 -38 43 -10 45 -13 53 -55 4 -25 6
-76 3 -114 -3 -42 1 -101 10 -150 13 -67 23 -90 56 -133 51 -66 85 -78 194
-64 87 11 129 34 129 72 0 27 0 27 -141 14 -80 -8 -81 -7 -111 21 -50 47 -63
97 -63 242 0 70 4 133 9 140 5 9 64 21 162 34 209 27 201 25 197 50 -4 32 -93
46 -233 36 -82 -5 -111 -4 -117 5 -5 7 -8 44 -6 82 1 39 1 95 0 127 -2 52 -4
57 -29 65 -16 5 -36 7 -46 5z"/>
<path d="M8287 3120 c-45 -24 -69 -47 -112 -105 -59 -79 -77 -116 -125 -252
-65 -184 -29 -340 98 -430 42 -29 64 -37 132 -45 167 -20 325 36 490 173 85
71 108 103 97 133 -12 30 -42 16 -117 -55 -102 -95 -222 -155 -340 -171 -79
-10 -91 -9 -153 11 -75 25 -105 54 -132 126 -35 91 -6 253 69 385 36 64 123
146 168 158 56 15 122 -3 164 -44 32 -33 34 -38 34 -104 0 -67 1 -70 29 -84
27 -14 31 -14 55 5 23 18 26 27 26 84 0 54 -4 69 -32 111 -27 39 -48 56 -113
88 -108 53 -160 57 -238 16z"/>
<path d="M1365 3130 c-3 -5 -12 -39 -20 -75 -14 -70 -20 -79 -174 -255 -92
-106 -201 -220 -211 -220 -14 0 -38 36 -90 135 -49 91 -100 168 -180 266 -16
20 -37 55 -46 78 -19 49 -51 62 -90 37 -33 -23 -40 -44 -19 -60 20 -14 21 -41
6 -107 -6 -26 -14 -78 -17 -115 -4 -38 -15 -91 -25 -117 -11 -26 -19 -59 -19
-72 0 -23 -11 -61 -61 -219 -10 -33 -19 -75 -19 -94 0 -31 2 -33 32 -30 27 3
33 9 44 43 34 111 67 213 78 240 13 30 31 101 62 248 9 42 20 77 24 77 28 0
240 -319 260 -391 6 -19 21 -47 34 -64 l25 -30 15 35 c8 20 68 92 133 161 65
69 149 165 186 213 38 48 74 85 80 83 7 -2 13 -21 14 -43 2 -21 8 -79 13 -129
6 -49 13 -129 15 -178 2 -48 8 -95 14 -105 5 -9 12 -40 16 -69 6 -44 11 -53
35 -63 16 -7 35 -18 41 -26 6 -8 20 -14 30 -14 25 0 25 33 0 68 -26 37 -50
190 -47 297 1 50 -2 95 -6 101 -5 6 -12 74 -16 150 -7 132 -10 142 -41 197
-31 55 -60 73 -76 47z"/>
<path d="M4108 3083 c-69 -46 -40 -93 57 -93 34 0 47 -5 55 -19 6 -12 10 -116
10 -269 0 -228 -2 -250 -18 -265 -10 -10 -26 -17 -34 -17 -22 0 -40 -25 -36
-52 3 -21 8 -23 53 -23 l50 0 3 -37 c4 -49 35 -52 60 -7 38 70 40 71 163 84
269 30 386 68 454 147 29 35 35 49 35 88 0 87 -92 207 -228 299 -56 38 -101
61 -229 117 -85 38 -184 62 -268 67 -84 5 -93 3 -127 -20z m377 -141 c125 -43
221 -106 314 -208 66 -72 87 -115 69 -144 -15 -23 -98 -70 -126 -70 -11 0 -41
-9 -66 -21 -26 -11 -66 -22 -89 -24 -23 -2 -80 -7 -127 -11 -47 -3 -95 -12
-106 -20 -12 -7 -24 -11 -26 -9 -3 3 -2 529 1 543 3 9 62 -4 156 -36z"/>
<path d="M9708 2982 c-32 -4 -30 5 -32 -137 0 -60 -7 -171 -15 -246 -13 -125
-13 -141 4 -208 19 -78 54 -131 86 -131 67 0 262 142 402 292 55 59 99 98 105
94 13 -8 9 -578 -4 -631 -17 -74 -84 -165 -147 -204 -77 -46 -219 -37 -306 19
-145 94 -153 199 -20 287 40 27 49 52 25 72 -16 13 -57 -4 -130 -56 -77 -55
-86 -182 -18 -272 68 -89 125 -127 229 -152 76 -18 124 -15 227 14 47 13 137
93 171 151 51 87 56 143 58 615 2 489 3 481 -63 481 l-39 0 1 -83 c0 -59 -4
-94 -16 -119 -21 -44 -201 -245 -227 -253 -11 -4 -52 -33 -92 -64 -82 -66
-133 -95 -153 -87 -20 8 -19 182 2 328 16 119 13 236 -9 273 -8 14 -20 19 -39
17z"/>
<path d="M2010 2966 c-61 -19 -94 -51 -127 -122 -49 -105 -103 -312 -103 -392
1 -86 21 -160 49 -184 33 -26 102 -23 185 9 126 48 260 206 277 328 8 65 -6
166 -31 215 -30 58 -110 134 -157 148 -46 14 -46 14 -93 -2z m115 -108 c54
-47 75 -97 82 -193 5 -77 4 -88 -20 -137 -51 -104 -215 -213 -291 -194 -69 17
-60 146 27 376 15 39 35 72 52 85 15 11 44 37 64 57 20 21 39 38 43 38 4 0 23
-14 43 -32z"/>
<path d="M5350 2967 c-86 -29 -136 -102 -179 -262 -54 -203 -60 -256 -40 -359
15 -71 42 -96 108 -96 80 0 178 44 249 114 125 121 166 231 137 368 -16 78
-25 98 -71 155 -61 75 -135 104 -204 80z m131 -126 c55 -57 72 -105 73 -201 1
-50 -5 -76 -24 -115 -48 -97 -221 -210 -292 -192 -50 13 -62 104 -29 217 48
161 74 220 110 247 20 15 48 42 64 60 16 18 34 33 40 33 6 0 32 -22 58 -49z"/>
<path d="M2508 2963 c-1 -4 -2 -73 -3 -153 -1 -80 -5 -179 -8 -220 -4 -41 -7
-113 -6 -160 0 -72 4 -89 22 -107 25 -28 39 -29 60 -5 19 22 102 161 161 273
61 113 157 253 177 257 9 2 20 -5 24 -15 4 -10 11 -110 15 -223 9 -260 31
-334 91 -311 25 9 97 105 177 232 77 125 102 160 111 155 5 -3 6 -26 3 -51 -3
-26 0 -50 7 -59 6 -7 13 -34 15 -58 2 -25 15 -70 30 -101 14 -31 26 -60 26
-66 0 -25 84 -43 138 -29 43 11 65 28 110 85 38 49 39 58 11 74 -19 9 -27 6
-63 -29 -47 -46 -79 -64 -98 -57 -7 3 -29 28 -48 56 l-35 52 -2 199 c-1 110
-4 206 -7 214 -12 31 -46 14 -81 -41 -19 -30 -35 -57 -35 -60 0 -3 -22 -38
-49 -78 -27 -40 -71 -111 -98 -159 -53 -91 -110 -164 -121 -154 -3 4 -7 95 -8
204 -1 108 -5 211 -9 227 -11 43 -63 105 -87 105 -35 0 -82 -44 -140 -132 -65
-98 -133 -209 -168 -274 -14 -26 -29 -46 -35 -45 -11 1 -11 14 -1 231 9 173
-2 223 -46 228 -16 2 -29 0 -30 -5z"/>
<path d="M9010 2925 c-20 -32 -21 -41 -12 -78 15 -58 23 -175 23 -352 1 -180
6 -216 38 -232 41 -20 48 -8 54 95 15 247 164 455 380 526 25 8 21 35 -8 46
-41 15 -85 0 -167 -57 -68 -47 -162 -143 -194 -198 -22 -38 -34 -6 -35 93 -1
142 -9 186 -35 190 -16 2 -28 -7 -44 -33z"/>
<path d="M6219 2880 c-30 -33 -73 -96 -96 -139 -46 -87 -175 -271 -200 -285
-14 -8 -15 -2 -10 50 26 235 28 298 9 359 -14 46 -23 61 -39 63 -12 2 -24 -4
-28 -15 -7 -16 -12 -137 -18 -448 -2 -80 1 -107 16 -137 29 -57 56 -52 107 20
22 31 63 89 91 127 27 39 76 113 108 166 62 104 103 159 120 159 12 0 15 -12
31 -140 18 -145 36 -221 65 -273 l27 -47 56 0 c32 1 69 6 83 13 33 15 112 105
139 157 41 80 14 122 -39 58 -14 -17 -52 -58 -85 -90 -77 -77 -101 -77 -128 2
-18 55 -56 261 -64 355 -5 53 -42 105 -74 105 -9 0 -41 -27 -71 -60z"/>
<path d="M6119 1343 c-27 -6 -76 -76 -87 -123 -9 -38 -32 -105 -108 -300 -92
-241 -146 -400 -140 -416 7 -19 80 -18 100 2 9 8 16 24 16 34 0 11 11 40 25
66 14 26 25 55 25 64 0 38 26 44 186 44 127 1 156 -2 164 -14 5 -8 22 -53 37
-100 14 -47 33 -91 42 -97 21 -18 100 -17 107 1 3 8 -11 59 -31 113 -21 54
-82 226 -136 382 -54 156 -106 292 -116 303 -23 26 -64 45 -84 41z m86 -345
c32 -93 55 -175 51 -183 -5 -13 -26 -15 -131 -13 -135 3 -137 5 -111 56 7 15
28 77 46 137 37 123 67 192 80 179 5 -5 34 -84 65 -176z"/>
<path d="M1435 1325 c-120 -30 -186 -80 -232 -178 -54 -113 -67 -239 -38 -377
18 -84 43 -137 92 -191 49 -54 102 -80 187 -90 150 -19 276 32 357 144 35 48
67 152 76 240 10 112 -34 304 -81 347 -72 67 -114 89 -204 109 -64 13 -91 13
-157 -4z m204 -123 c137 -70 164 -402 44 -542 -49 -57 -85 -73 -163 -73 -119
0 -199 57 -234 166 -48 148 -22 329 61 411 14 14 48 35 77 46 62 24 159 21
215 -8z"/>
<path d="M8742 1324 c-114 -25 -185 -79 -235 -179 -77 -155 -57 -432 40 -545
134 -157 381 -157 527 0 61 65 81 110 101 225 16 91 16 108 2 185 -33 193
-113 284 -275 319 -63 13 -78 13 -160 -5z m163 -105 c134 -37 200 -253 139
-459 -19 -65 -51 -109 -107 -146 -37 -25 -51 -28 -117 -28 -56 1 -85 6 -117
22 -51 27 -96 80 -112 134 -31 103 -22 288 19 368 49 95 174 142 295 109z"/>
<path d="M360 1322 c-35 -2 -70 -8 -77 -14 -10 -8 -13 -96 -13 -410 l0 -399
63 3 62 3 -4 163 c-2 105 1 167 8 175 7 10 45 13 141 11 l130 -1 12 39 c8 29
8 42 0 50 -7 7 -61 12 -149 12 l-138 1 0 130 0 130 150 5 150 5 3 38 c2 21 -1
44 -7 51 -11 13 -170 17 -331 8z"/>
<path d="M2950 1323 c-50 -10 -50 -7 -50 -302 0 -152 -5 -294 -10 -315 -13
-56 -75 -116 -128 -123 -73 -10 -130 5 -174 45 -69 63 -71 72 -75 391 -1 157
-7 289 -11 293 -5 5 -31 8 -58 6 l-49 -3 -3 -165 c-5 -317 19 -488 82 -573 11
-15 50 -42 86 -60 57 -28 74 -32 145 -31 165 1 269 87 304 252 16 75 15 564
-1 580 -12 12 -15 13 -58 5z"/>
<path d="M4115 1318 c-16 -6 -32 -12 -34 -14 -2 -2 -3 -139 -3 -304 1 -166 -2
-300 -7 -300 -13 0 -25 19 -62 100 -19 41 -66 134 -105 205 -39 72 -90 167
-114 213 -25 46 -53 88 -63 94 -22 11 -142 7 -154 -6 -4 -4 -10 -187 -11 -406
l-4 -398 54 -4 c29 -2 58 -3 63 -1 7 2 10 119 9 334 -1 199 3 328 8 327 10 -4
34 -47 172 -313 49 -93 111 -209 137 -256 48 -85 50 -87 92 -93 24 -4 56 -2
70 3 l27 11 0 387 c0 214 -3 398 -6 411 -7 24 -22 26 -69 10z"/>
<path d="M4808 1321 c-27 -4 -54 -13 -60 -19 -17 -17 -25 -699 -9 -753 14 -47
43 -59 144 -59 172 0 273 32 364 114 68 61 99 127 113 241 18 143 -15 284 -83
357 -33 36 -112 87 -159 104 -49 17 -237 27 -310 15z m209 -101 c100 -12 160
-58 205 -155 30 -67 32 -223 3 -303 -44 -120 -135 -175 -282 -170 l-78 3 -3
310 c-2 286 -1 311 15 323 11 8 28 11 43 7 14 -4 58 -10 97 -15z"/>
<path d="M6784 1306 c-3 -13 -4 -37 -2 -52 l3 -29 107 -3 c96 -2 109 -5 118
-23 8 -13 10 -130 8 -359 l-3 -340 58 0 57 0 0 349 c0 275 3 351 13 359 7 6
62 13 123 14 l109 3 0 44 c0 41 -3 45 -29 52 -16 4 -147 8 -292 9 l-264 0 -6
-24z"/>
<path d="M7835 1319 c-2 -8 -6 -195 -7 -417 l-3 -403 21 -5 c24 -6 76 0 93 11
13 7 16 801 4 808 -5 3 -29 8 -55 12 -36 6 -49 4 -53 -6z"/>
<path d="M9677 1302 c-14 -15 -16 -66 -17 -409 l-1 -392 46 -6 c24 -4 51 -5
58 -2 11 4 14 71 16 333 1 181 4 330 6 332 3 3 69 -115 179 -320 163 -304 181
-332 215 -341 18 -4 47 -7 65 -5 l31 3 5 235 c3 129 6 314 5 410 l0 175 -40 3
c-71 4 -68 19 -67 -328 0 -172 -3 -309 -8 -304 -4 5 -49 88 -100 184 -51 96
-103 191 -114 210 -12 19 -39 69 -60 110 -67 129 -68 130 -140 130 -47 0 -67
-4 -79 -18z"/>
</g>
</svg>
