<?xml version="1.0" standalone="no"?>
<!DOCTYPE svg PUBLIC "-//W3C//DTD SVG 20010904//EN"
 "http://www.w3.org/TR/2001/REC-SVG-20010904/DTD/svg10.dtd">
<svg version="1.0" xmlns="http://www.w3.org/2000/svg"
 width="1080.000000pt" height="1001.000000pt" viewBox="0 0 1080.000000 1001.000000"
 preserveAspectRatio="xMidYMid meet">

<g transform="translate(0.000000,1001.000000) scale(0.100000,-0.100000)"
fill="#000000" stroke="none">
<path d="M4101 9899 c-53 -32 -230 -215 -300 -309 -60 -80 -181 -281 -181
-300 0 -5 -15 -44 -34 -87 -19 -43 -42 -112 -51 -153 -21 -96 -35 -279 -25
-322 40 -165 103 -268 191 -312 69 -34 95 -33 153 6 46 30 53 41 172 284 68
139 124 258 124 264 0 7 6 24 14 38 8 15 17 35 20 45 12 37 23 14 29 -59 4
-42 4 -80 1 -85 -3 -5 -9 -105 -14 -222 -10 -234 -29 -323 -87 -422 -32 -55
-93 -231 -93 -270 0 -45 55 -124 86 -125 20 0 71 60 82 98 59 193 72 248 77
317 5 51 16 99 31 134 13 29 24 58 24 63 0 5 13 28 29 51 15 23 38 64 49 90
12 26 30 60 40 75 10 15 24 43 31 62 18 53 85 190 93 190 8 0 12 -16 23 -84 5
-29 20 -54 59 -94 45 -46 58 -55 87 -54 28 0 43 10 86 57 28 31 70 92 93 136
38 74 74 114 91 103 4 -2 3 -18 -3 -35 -14 -39 -6 -165 13 -204 11 -24 21 -31
52 -33 34 -3 43 2 102 59 36 35 90 102 121 150 78 124 94 124 94 2 0 -107 44
-120 114 -35 65 78 172 185 201 199 17 9 47 31 68 49 39 35 83 45 93 20 7 -18
-17 -65 -45 -90 -12 -11 -21 -25 -21 -31 0 -7 -15 -35 -33 -61 -57 -83 -73
-155 -39 -173 14 -7 27 -5 50 7 57 32 127 85 161 124 18 21 59 56 90 77 31 21
87 64 125 95 38 31 72 56 77 56 18 0 8 -33 -23 -75 -18 -24 -55 -73 -82 -109
-26 -36 -54 -82 -62 -103 -38 -108 8 -172 93 -129 15 8 44 22 63 31 58 27 126
71 166 109 22 21 48 36 62 36 22 0 24 -3 17 -32 -3 -18 -9 -71 -12 -116 -5
-81 -4 -85 23 -113 15 -16 45 -41 66 -55 35 -25 43 -26 108 -20 38 3 87 12
107 20 21 8 60 20 88 28 33 9 62 25 86 51 41 42 38 41 73 27 l26 -9 -25 -37
c-14 -21 -23 -44 -21 -53 3 -9 8 -32 11 -51 9 -46 60 -134 92 -160 47 -36 93
-42 264 -32 120 7 166 14 185 27 49 32 25 40 -124 40 -123 0 -144 2 -159 18
-17 18 -17 19 1 33 11 8 27 14 36 14 53 0 202 67 262 117 59 49 74 75 88 152
6 36 20 83 31 104 11 20 19 49 17 65 -5 41 -55 43 -116 4 -26 -16 -71 -35
-101 -42 -30 -7 -69 -21 -85 -30 -17 -10 -70 -28 -119 -39 -48 -12 -104 -30
-125 -41 -21 -11 -61 -24 -89 -29 -29 -6 -60 -14 -70 -19 -66 -34 -81 -37
-193 -37 -100 0 -121 3 -138 18 -26 23 -46 97 -37 135 11 51 26 57 159 57 105
1 126 3 163 23 23 12 48 22 56 22 41 0 147 102 147 141 0 27 -47 77 -85 89
-62 20 -225 -3 -324 -46 -57 -25 -161 -96 -224 -151 -20 -18 -42 -33 -47 -33
-5 0 -39 -13 -73 -30 -71 -33 -80 -35 -127 -19 -31 11 -32 13 -26 52 8 49 29
79 128 185 45 47 78 91 78 103 0 28 -48 89 -71 89 -10 0 -32 -14 -48 -31 -17
-17 -49 -44 -73 -60 -62 -42 -202 -148 -262 -199 -17 -14 -52 -45 -78 -69 -38
-35 -49 -40 -54 -27 -3 8 2 26 13 40 35 46 171 211 192 234 27 28 54 100 47
128 -4 13 -20 25 -45 34 -37 12 -44 11 -95 -15 -57 -29 -75 -43 -277 -210
-135 -112 -172 -131 -184 -95 -9 30 29 84 106 151 99 85 119 106 119 127 0 11
-6 24 -12 30 -75 60 -188 -30 -326 -258 -41 -69 -188 -210 -218 -210 -14 0
-35 18 -63 55 -22 31 -41 60 -41 65 0 5 11 20 24 33 14 14 29 42 35 63 6 22
20 54 31 72 26 42 25 82 -1 116 -20 25 -20 29 -6 64 9 22 11 45 7 57 -11 28
-48 65 -65 65 -29 0 -317 -202 -327 -229 -1 -5 -23 -31 -48 -58 -25 -26 -56
-62 -68 -80 -29 -42 -92 -169 -92 -186 0 -8 -9 -22 -20 -32 -11 -10 -36 -46
-54 -79 -95 -175 -120 -215 -133 -220 -23 -9 -35 4 -29 30 15 57 26 245 28
465 2 210 1 238 -15 262 -22 34 -56 35 -86 3 -13 -14 -42 -82 -67 -158 -25
-73 -56 -157 -69 -186 -14 -29 -25 -57 -25 -62 0 -31 -159 -345 -208 -413 -48
-65 -71 -80 -107 -71 -69 17 -107 150 -85 297 33 233 181 562 324 722 20 22
36 45 36 51 0 16 62 75 74 71 6 -2 13 -19 17 -38 11 -72 32 -77 60 -16 11 23
33 58 50 79 27 32 31 44 30 93 -1 117 -83 177 -170 124z m955 -584 c4 -8 -18
-58 -49 -112 -31 -54 -60 -110 -66 -124 -5 -15 -22 -42 -38 -60 -16 -19 -42
-52 -58 -74 -70 -95 -91 -108 -134 -85 -27 14 -44 64 -37 104 4 19 27 62 52
95 80 107 269 271 311 271 8 0 16 -7 19 -15z m1925 -186 c9 -18 6 -26 -23 -56
-41 -43 -143 -94 -200 -100 -32 -4 -49 0 -66 13 -22 18 -22 20 -6 43 22 30
102 81 129 81 12 0 25 3 29 8 12 12 69 30 98 31 18 1 31 -6 39 -20z m492 -275
c3 -4 -3 -23 -13 -43 -11 -20 -29 -56 -39 -81 -11 -25 -32 -59 -48 -74 -30
-31 -121 -76 -153 -76 -27 0 -47 35 -55 97 -4 29 -13 57 -21 64 -8 6 -14 17
-14 25 0 13 89 43 132 45 12 0 52 11 88 24 65 23 111 30 123 19z"/>
<path d="M4098 9513 c7 -3 16 -2 19 1 4 3 -2 6 -13 5 -11 0 -14 -3 -6 -6z"/>
<path d="M2717 8271 c-15 -17 -26 -53 -57 -175 -16 -64 -19 -98 -14 -185 6
-97 32 -234 51 -264 4 -6 8 -50 9 -97 0 -47 4 -94 8 -105 5 -15 -2 -35 -26
-70 -39 -58 -75 -75 -113 -55 -36 19 -85 97 -85 135 0 90 -61 278 -95 291 -20
8 -94 -45 -101 -72 -8 -31 12 -121 36 -161 17 -30 27 -59 44 -134 3 -14 19
-43 36 -64 21 -26 30 -49 30 -74 0 -20 5 -43 10 -51 9 -13 13 -11 30 12 24 31
51 28 79 -9 13 -16 37 -27 74 -35 72 -15 110 0 148 61 27 41 29 53 29 137 0
101 -11 144 -35 144 -12 0 -15 8 -13 28 2 21 8 26 23 24 64 -10 103 -20 122
-30 30 -16 76 -15 120 3 41 18 57 34 83 91 36 75 51 379 22 431 -15 26 -34
-12 -42 -84 -20 -174 -63 -268 -140 -308 -39 -20 -95 -6 -133 33 -22 23 -27
38 -28 87 -4 115 6 210 22 211 56 2 85 42 74 103 -8 40 -67 162 -87 178 -24
19 -67 21 -81 4z"/>
<path d="M8712 8235 c-23 -14 -51 -25 -60 -25 -20 0 -100 -48 -131 -79 -28
-28 -28 -115 -1 -202 23 -69 22 -69 74 -179 43 -92 94 -244 102 -302 7 -56 -8
-96 -41 -104 -19 -5 -50 5 -118 39 -77 37 -108 61 -193 143 -106 104 -168 175
-220 253 -44 64 -89 145 -86 153 1 4 -9 19 -23 34 -21 23 -29 25 -62 19 -58
-11 -113 -43 -125 -73 -10 -27 -9 -33 33 -142 8 -19 16 -37 19 -40 49 -46 125
-174 114 -192 -8 -12 -72 -1 -98 18 -25 17 -62 18 -72 2 -9 -14 23 -38 53 -38
70 0 18 -106 -57 -115 -8 -1 -32 -6 -52 -10 -31 -6 -39 -3 -55 15 -65 80 -52
74 -154 75 -76 0 -111 6 -181 29 -81 27 -88 31 -88 55 0 34 43 97 79 115 27
14 29 14 57 -15 64 -68 117 -76 166 -25 61 63 126 57 113 -10 -10 -56 2 -81
42 -87 40 -7 63 1 42 14 -22 13 -21 104 1 132 l19 24 -62 8 c-89 10 -108 8
-137 -19 -47 -45 -85 -39 -110 19 -21 49 -34 54 -81 30 -16 -9 -33 -14 -37
-12 -18 11 -53 -17 -76 -60 -13 -26 -43 -66 -66 -88 -37 -36 -46 -40 -93 -41
-119 -1 -327 -16 -397 -29 -41 -8 -97 -17 -125 -20 -115 -16 -233 -71 -341
-161 -98 -82 -150 -150 -198 -264 l-39 -89 5 -113 c4 -101 8 -120 36 -181 65
-138 133 -218 282 -329 127 -95 160 -142 167 -243 3 -54 0 -65 -30 -115 -33
-55 -139 -147 -218 -190 -43 -23 -92 -78 -157 -175 -57 -85 -111 -145 -132
-145 -33 0 -91 22 -113 43 -13 12 -31 40 -42 62 -10 22 -43 65 -74 95 -31 31
-76 81 -100 113 -24 31 -65 70 -91 87 -27 17 -50 37 -53 44 -6 15 7 40 46 89
39 49 67 135 82 254 8 56 21 116 30 133 13 26 14 38 5 66 -16 48 -48 46 -79
-4 -26 -42 -70 -72 -106 -72 -35 0 -95 39 -107 69 -18 48 -21 201 -8 364 19
224 7 332 -51 454 -23 48 -50 99 -60 112 -11 13 -19 32 -19 43 0 28 -28 78
-45 78 -16 0 -20 -14 -30 -85 -12 -89 -96 -194 -171 -215 -63 -18 -180 -9
-230 17 -43 22 -150 128 -173 171 -10 18 -14 71 -15 186 -1 167 7 235 32 273
24 38 10 51 -52 48 -31 -2 -66 -9 -78 -17 -13 -8 -54 -23 -92 -32 -80 -21
-170 -61 -241 -110 -68 -47 -70 -49 -155 -161 -96 -125 -205 -264 -228 -291
-14 -17 -35 -23 -91 -29 -70 -7 -74 -6 -101 20 -35 34 -53 96 -48 170 2 46 0
60 -14 68 -14 9 -29 0 -88 -58 -92 -90 -141 -161 -221 -315 l-64 -125 0 -125
c0 -106 4 -135 23 -190 33 -90 41 -202 18 -245 -27 -50 -72 -66 -121 -43 -24
11 -42 53 -60 141 -7 35 -35 47 -49 22 -6 -10 -23 -32 -37 -49 -76 -89 -114
-197 -107 -301 9 -125 109 -311 219 -406 33 -28 59 -57 59 -63 0 -7 -14 -32
-30 -55 -17 -23 -39 -65 -50 -94 -11 -28 -29 -70 -40 -92 -29 -56 -26 -124 10
-224 17 -46 30 -96 30 -112 0 -15 5 -31 11 -35 6 -3 22 -32 36 -62 13 -31 37
-71 53 -89 16 -18 36 -48 46 -68 9 -20 27 -41 40 -45 36 -14 71 -59 85 -109 6
-25 23 -57 35 -72 20 -21 24 -36 24 -91 0 -60 3 -69 26 -87 15 -12 54 -30 88
-40 66 -21 136 -56 184 -90 17 -11 37 -21 44 -21 8 0 18 -3 21 -7 10 -9 169
-63 188 -63 44 0 47 -53 6 -91 -23 -21 -129 -185 -148 -229 -25 -56 -24 -55
-86 -52 -54 2 -62 0 -98 -31 -22 -19 -50 -37 -62 -41 -25 -8 -26 -10 -23 -77
1 -46 -16 -78 -43 -79 -7 -1 -28 -14 -47 -30 -19 -17 -39 -30 -45 -30 -16 0
-123 -75 -167 -118 -41 -39 -45 -56 -26 -97 10 -23 10 -28 -5 -36 -28 -16 -21
-64 15 -104 17 -20 63 -53 102 -72 60 -31 79 -36 126 -33 78 4 98 4 160 0 86
-4 201 1 227 11 46 17 103 73 132 129 36 68 27 100 -11 43 -14 -21 -49 -62
-77 -90 l-51 -53 -98 0 c-54 0 -103 5 -108 10 -7 7 -23 6 -50 -4 -62 -21 -194
-6 -244 29 -21 15 -45 34 -54 44 -21 23 -33 81 -16 81 6 0 23 8 36 19 l24 19
-31 6 c-26 5 -30 10 -27 32 6 56 68 59 68 4 0 -29 2 -31 33 -28 25 2 35 10 46
36 15 34 39 39 32 6 -2 -10 -4 -39 -5 -64 l-1 -45 58 -1 c31 -1 60 2 63 7 3 5
14 9 25 9 14 0 19 7 19 26 0 16 11 35 29 50 17 14 33 34 36 44 8 24 28 26 45
4 11 -13 10 -23 -8 -60 -26 -54 -21 -68 23 -61 26 4 38 0 56 -20 39 -42 59
-44 106 -12 22 16 50 41 61 56 19 25 23 27 42 15 18 -11 23 -10 40 10 11 13
22 31 25 40 3 9 22 27 41 38 39 25 114 144 107 171 -3 9 -13 19 -24 22 -24 6
-35 35 -22 55 17 28 86 61 129 62 60 0 105 18 139 54 42 45 200 185 259 229
47 35 107 50 120 29 6 -11 -22 -162 -36 -189 -6 -12 -29 -34 -50 -48 -42 -28
-61 -62 -78 -142 -6 -26 -18 -58 -26 -70 -8 -12 -14 -46 -14 -76 0 -60 -25
-226 -42 -272 -5 -16 -17 -45 -26 -62 -13 -27 -14 -40 -5 -74 9 -33 7 -55 -8
-115 -10 -40 -26 -85 -35 -99 -9 -13 -20 -44 -26 -67 -13 -59 -21 -66 -72 -61
-43 5 -46 3 -110 -57 -72 -69 -86 -99 -85 -176 2 -64 -7 -91 -31 -99 -11 -3
-32 -19 -47 -35 -15 -16 -41 -35 -58 -41 -16 -7 -49 -27 -72 -46 -34 -27 -43
-41 -49 -78 -5 -36 -13 -50 -38 -67 -66 -45 -95 -81 -112 -137 -35 -121 -58
-141 -114 -101 -40 29 -163 78 -245 99 -38 10 -99 28 -134 40 -84 28 -119 27
-209 -6 -60 -23 -88 -41 -144 -94 -61 -57 -71 -72 -79 -113 -18 -97 7 -140
194 -333 150 -156 198 -222 210 -290 5 -28 2 -36 -18 -49 -55 -36 -348 28
-425 92 -8 7 -40 26 -70 41 -81 43 -100 55 -149 91 -24 17 -49 32 -56 32 -6 0
-22 11 -34 24 -17 18 -22 33 -19 55 6 42 -13 41 -99 -5 -75 -39 -77 -42 -87
-96 -6 -36 -4 -40 61 -106 37 -38 102 -91 143 -117 109 -70 317 -164 361 -165
8 0 34 -9 57 -20 67 -33 157 -37 233 -11 97 32 140 61 182 121 35 50 38 59 33
103 -3 26 -12 57 -21 70 -8 12 -20 38 -25 57 -13 49 -71 124 -203 264 -129
136 -147 161 -147 198 0 40 34 66 97 74 81 10 96 7 328 -63 27 -8 61 -23 75
-32 14 -10 37 -21 52 -25 35 -8 128 -90 148 -129 11 -23 27 -34 63 -44 48 -14
49 -14 99 18 37 24 55 44 69 77 10 24 19 50 19 57 0 14 30 25 70 25 14 0 43
-11 65 -23 22 -13 70 -29 105 -37 36 -7 88 -24 115 -37 73 -33 176 -33 221 2
40 30 74 32 97 4 l18 -20 33 20 c26 17 43 20 79 15 56 -8 88 9 106 58 7 18 18
43 24 55 7 17 7 29 -1 45 -6 13 -11 32 -11 43 -4 123 2 141 44 129 36 -11 38
-9 48 28 5 23 21 46 42 62 30 24 64 79 80 133 3 13 1 38 -6 56 -15 44 -5 104
20 112 29 9 35 62 11 100 -34 55 -89 57 -110 4 -9 -20 -19 -29 -36 -29 -20 0
-24 5 -24 29 0 31 4 39 103 190 34 52 72 113 85 135 29 51 39 57 84 50 29 -4
43 -1 67 17 17 13 31 31 31 40 0 10 8 24 18 31 10 7 31 40 46 73 16 33 36 69
46 80 10 11 25 40 34 65 9 28 36 66 69 101 50 52 54 59 60 118 9 82 20 101 60
101 43 0 53 8 76 60 19 43 19 44 0 81 -10 21 -23 40 -29 44 -6 3 -2 26 10 58
23 64 26 84 17 119 -8 29 -29 36 -56 19 -18 -12 -66 11 -75 34 -9 25 -7 116 4
154 11 38 61 95 100 115 14 7 45 16 69 20 24 4 56 13 72 21 32 17 135 20 173
5 38 -14 51 -46 31 -76 -9 -14 -26 -29 -38 -33 -31 -12 -51 -37 -43 -56 6 -18
37 -20 53 -4 9 9 14 5 19 -15 4 -19 2 -31 -9 -39 -8 -7 -18 -34 -22 -61 -6
-44 -4 -53 24 -91 17 -24 31 -50 31 -57 0 -18 35 -51 76 -71 17 -9 36 -22 43
-30 11 -15 28 -84 37 -157 9 -73 16 -106 30 -137 17 -38 18 -123 2 -158 -11
-24 -16 -26 -49 -21 -45 7 -78 -16 -58 -40 15 -18 27 -18 63 1 15 8 34 15 41
15 21 0 26 -29 10 -61 -18 -34 -13 -49 16 -49 50 0 78 -80 40 -114 -25 -23
-46 -12 -70 40 -15 31 -29 45 -48 50 -16 4 -40 15 -54 25 -14 10 -29 16 -33
12 -8 -9 22 -53 52 -77 13 -10 28 -30 33 -45 14 -36 -18 -61 -77 -61 -33 0
-46 -5 -54 -20 -15 -28 -4 -58 31 -88 57 -47 31 -94 -86 -153 -74 -37 -135
-93 -112 -102 10 -4 17 3 21 19 8 29 49 33 84 8 22 -15 22 -17 7 -34 -9 -10
-29 -20 -45 -24 -26 -5 -28 -8 -21 -28 7 -20 15 -23 61 -23 47 1 55 4 80 35
31 38 52 34 43 -10 -5 -25 0 -34 27 -58 18 -15 60 -55 94 -89 34 -34 73 -64
88 -68 30 -8 91 9 108 30 6 8 36 19 66 25 56 12 91 38 100 75 3 11 21 31 41
44 31 20 43 22 82 16 87 -14 145 1 157 39 3 11 12 28 19 36 18 21 8 66 -18 78
-31 13 -131 42 -149 42 -9 0 -22 7 -29 16 -22 26 29 64 87 64 35 0 44 4 46 18
1 9 2 24 3 32 3 36 19 58 75 105 54 46 59 53 59 93 1 47 -27 81 -77 94 -38 10
-46 -4 -47 -75 0 -64 -16 -94 -58 -110 -22 -8 -48 40 -50 91 -2 56 64 149 121
172 48 18 62 33 62 68 0 27 -13 28 -37 4 -10 -10 -37 -24 -60 -32 -30 -9 -43
-19 -45 -34 -3 -23 -38 -36 -38 -14 0 8 9 31 20 53 11 22 20 57 20 80 0 43 17
77 86 166 55 72 111 230 95 267 -25 54 -6 101 55 133 24 13 62 34 84 46 39 20
101 71 128 105 10 13 11 30 1 83 -12 69 -18 76 -92 99 -17 6 -17 8 5 47 13 23
37 58 55 77 18 19 35 48 39 65 8 38 93 195 132 245 40 51 50 71 79 165 51 167
51 165 43 325 l-7 150 -37 50 c-20 28 -59 67 -87 89 -39 29 -59 54 -85 108
-18 39 -39 77 -46 85 -26 31 -113 82 -169 99 -31 10 -70 28 -87 39 -17 13 -54
24 -87 28 l-57 7 5 31 c3 17 11 61 18 97 15 76 4 122 -58 247 -29 57 -46 79
-82 102 -25 17 -64 43 -85 60 -21 16 -46 30 -56 30 -28 0 -190 155 -238 227
-62 94 -72 122 -72 200 0 54 5 76 25 108 13 22 33 57 44 77 32 57 130 157 180
184 25 14 61 35 79 49 41 30 169 69 291 90 51 9 121 23 155 32 131 33 238 -1
317 -103 47 -59 79 -78 93 -56 3 5 -13 29 -35 53 -22 24 -47 59 -56 78 -14 32
-14 36 3 48 21 16 36 16 89 2 53 -14 125 -27 204 -37 36 -5 67 -14 69 -20 2
-7 17 -19 34 -28 36 -19 32 -24 -51 -54 l-64 -24 23 -18 c16 -13 36 -18 64
-16 35 3 43 8 59 40 15 28 28 38 54 43 19 3 69 22 112 42 65 30 82 43 104 79
15 24 34 44 43 44 9 0 51 -36 93 -79 75 -78 197 -181 214 -181 5 0 21 -8 35
-18 37 -25 143 -62 179 -62 34 0 122 24 171 47 25 12 41 31 63 78 36 78 37
131 4 241 -14 46 -30 105 -35 133 -5 27 -34 109 -65 182 -79 190 -75 209 47
209 62 0 67 -2 163 -66 161 -105 375 -315 375 -365 0 -12 -10 -29 -22 -40
l-23 -19 24 -20 c13 -11 31 -20 41 -20 9 0 40 -10 68 -21 l51 -21 29 24 c16
13 43 30 61 38 43 17 49 49 19 99 -103 174 -238 331 -365 427 -97 73 -182 124
-206 124 -10 0 -41 11 -69 25 -62 31 -111 31 -166 0z m-4472 -1375 c0 -5 -9
-10 -20 -10 -11 0 -20 5 -20 10 0 6 9 10 20 10 11 0 20 -4 20 -10z m198 -42
c7 -7 12 -20 12 -30 0 -16 -3 -17 -20 -8 -11 6 -20 20 -20 30 0 23 10 26 28 8z
m-708 -27 c19 -36 10 -60 -35 -107 -34 -34 -47 -42 -51 -30 -3 8 1 25 10 38 9
12 16 31 16 41 0 23 28 77 40 77 5 0 14 -9 20 -19z m465 -51 c17 -4 47 -8 67
-8 49 0 91 -34 116 -92 41 -96 36 -138 -20 -163 -18 -8 -50 -22 -72 -32 -48
-22 -217 -16 -244 8 -9 9 -35 18 -57 22 -71 11 -147 37 -167 57 -24 24 -17 63
16 89 12 10 35 37 52 61 30 45 46 59 79 69 25 8 189 0 230 -11z m325 -65 c0
-41 -12 -45 -28 -10 -17 36 -15 45 8 45 16 0 20 -7 20 -35z m159 -9 c11 -25
25 -47 31 -51 18 -11 11 -40 -17 -74 -36 -43 -58 -54 -82 -41 -52 27 -22 210
34 210 7 0 22 -20 34 -44z m-848 -265 c44 -44 50 -77 20 -119 -10 -15 -24 -45
-31 -67 -25 -78 -29 -85 -53 -85 -13 0 -32 6 -43 14 -13 10 -33 13 -60 9 -34
-4 -46 -1 -63 16 -11 11 -21 25 -21 31 0 5 20 29 45 52 25 23 45 48 45 54 0 6
7 17 16 25 8 7 27 34 40 61 30 60 52 62 105 9z m313 -25 c139 -36 165 -52 144
-90 -7 -11 -15 -57 -18 -101 -5 -74 -7 -80 -28 -83 -13 -2 -42 10 -69 27 -42
28 -73 37 -113 32 -72 -8 -183 -4 -192 6 -12 15 5 65 32 98 14 18 26 43 61
134 8 18 14 22 32 17 12 -4 80 -22 151 -40z m327 -3 c24 -58 68 -123 82 -123
18 0 47 -32 47 -51 0 -21 -29 -39 -63 -39 -13 0 -35 -8 -48 -18 -32 -25 -123
-56 -141 -49 -18 7 -28 51 -28 126 1 59 11 80 48 100 14 8 22 21 22 38 0 29
25 63 47 63 7 0 23 -21 34 -47z m254 -145 c-4 -18 -7 -53 -6 -77 0 -51 -26
-104 -70 -139 -28 -23 -29 -23 -29 -4 0 42 -9 51 -41 40 -16 -5 -29 -13 -29
-17 0 -4 -16 -34 -36 -67 -19 -32 -40 -81 -47 -107 -6 -28 -18 -52 -29 -58
-10 -5 -29 -32 -43 -59 -17 -34 -33 -52 -50 -56 -18 -4 -26 -15 -31 -38 -7
-42 -52 -69 -113 -69 -37 0 -56 -7 -92 -33 -26 -19 -56 -34 -68 -34 -26 0 -72
23 -90 44 -7 8 -36 27 -64 41 -59 31 -97 63 -97 81 0 21 39 36 74 30 26 -5 61
-6 191 -5 11 0 56 -7 100 -15 69 -13 81 -13 91 0 6 8 24 14 40 14 22 0 25 3
16 12 -18 18 -14 93 8 177 11 41 20 84 20 95 0 23 27 56 47 56 7 0 41 12 75
26 49 20 74 25 122 22 59 -3 61 -2 83 31 14 21 23 49 23 72 0 51 8 69 32 69
18 0 19 -4 13 -32z m-1185 -88 c0 -23 -13 -32 -34 -24 -21 8 -20 31 1 43 22
12 33 5 33 -19z m187 -46 c32 -12 45 -24 50 -43 3 -14 13 -34 22 -45 10 -11
16 -37 16 -70 1 -28 4 -72 9 -99 8 -46 7 -48 -30 -82 -46 -42 -54 -43 -54 -7
0 48 -29 131 -50 142 -15 8 -20 21 -20 49 0 46 -24 98 -50 106 -13 4 -17 12
-13 23 17 47 48 53 120 26z m347 -29 c12 -31 16 -58 12 -83 -3 -20 -10 -72
-15 -114 -11 -85 -15 -98 -36 -98 -34 0 -41 57 -20 156 5 21 2 34 -9 43 -21
18 -20 72 2 110 24 43 44 39 66 -14z m-474 -45 c0 -23 -12 -31 -29 -21 -10 7
-10 12 0 29 15 24 29 20 29 -8z m310 -26 c0 -25 -15 -30 -39 -15 -12 8 -13 14
-3 36 10 22 15 25 27 15 8 -7 15 -23 15 -36z m685 -97 c-5 -31 -16 -54 -36
-73 -20 -19 -29 -38 -29 -59 0 -40 -22 -70 -44 -62 -25 10 -21 81 8 120 13 18
26 45 30 60 9 37 54 83 68 69 5 -5 7 -28 3 -55z m-691 -50 c-3 -15 -10 -27
-14 -27 -13 0 -20 30 -14 57 6 21 8 23 21 10 9 -9 12 -23 7 -40z m2803 41 c15
-6 35 -18 44 -25 8 -7 44 -18 79 -25 84 -17 91 -38 23 -64 -57 -21 -199 -111
-229 -145 -38 -43 -114 -161 -114 -177 0 -8 -11 -34 -24 -56 -40 -69 -48 -120
-48 -301 1 -242 8 -292 43 -326 22 -22 29 -37 29 -68 0 -37 7 -47 73 -114 39
-41 91 -87 115 -102 l42 -28 132 7 c127 7 132 8 166 37 27 24 37 28 48 18 21
-18 17 -36 -15 -60 -16 -11 -35 -33 -42 -48 -23 -46 -70 -101 -86 -101 -25 0
-83 -31 -83 -45 0 -7 15 -22 33 -34 77 -48 125 -124 94 -150 -39 -32 -250
-161 -264 -161 -8 0 -36 -11 -62 -24 -26 -12 -65 -29 -86 -36 -22 -7 -64 -23
-92 -37 -45 -22 -64 -25 -130 -22 -67 4 -90 10 -166 46 -160 77 -251 192 -216
275 10 23 15 27 38 22 37 -9 61 -23 61 -35 0 -6 10 -9 23 -7 14 2 22 10 22 23
0 13 8 21 24 23 21 3 23 8 18 38 -3 20 -3 42 0 50 8 22 53 16 112 -16 68 -37
101 -39 101 -6 0 32 22 48 54 40 20 -5 26 -2 26 10 0 13 -41 49 -142 123 -17
12 -39 37 -50 55 -11 18 -33 49 -47 68 -15 19 -33 51 -40 70 -7 19 -17 44 -21
55 -71 171 -99 311 -100 493 0 154 11 224 42 258 15 17 18 30 13 57 -8 42 8
98 36 123 11 10 28 36 38 58 10 23 31 56 47 75 39 47 136 117 182 132 20 6 50
21 65 31 15 11 40 24 55 28 41 13 148 11 179 -2z m-3032 -31 c9 -44 2 -110
-10 -114 -31 -10 -63 128 -32 140 27 11 36 6 42 -26z m3365 -95 c34 -17 52
-30 113 -83 26 -22 30 -33 30 -73 0 -44 -3 -50 -74 -124 -84 -88 -113 -121
-128 -151 -17 -30 -16 -341 1 -389 15 -45 88 -144 126 -171 16 -11 36 -35 47
-54 16 -30 17 -39 6 -66 -14 -32 -98 -91 -176 -123 -47 -20 -197 -30 -233 -17
-32 12 -172 138 -172 154 0 8 -16 35 -36 60 -32 43 -37 56 -45 139 -12 126
-10 325 4 426 10 65 20 98 45 138 17 29 32 56 32 60 0 15 83 108 138 155 31
26 73 52 92 57 19 5 51 21 71 34 32 22 84 42 114 45 6 1 26 -7 45 -17z m-1346
-72 c47 -24 159 -153 154 -179 -4 -17 -31 -18 -113 -6 -101 16 -192 -74 -220
-215 -8 -41 -21 -101 -30 -133 -35 -134 4 -417 68 -485 13 -15 28 -37 31 -49
7 -22 56 -43 99 -43 12 0 17 -8 17 -27 0 -20 -15 -43 -52 -80 -74 -75 -113
-72 -211 14 -26 23 -40 45 -48 80 -6 26 -21 57 -33 68 -37 35 -76 226 -78 385
-1 97 4 136 43 308 5 23 20 59 33 80 13 21 27 53 31 72 8 36 134 170 161 170
8 0 14 5 14 10 0 13 60 50 79 50 8 0 33 -9 55 -20z m-238 -21 c3 -6 -8 -31
-25 -55 -17 -25 -31 -49 -31 -54 0 -6 -14 -22 -31 -37 -17 -16 -37 -44 -46
-63 -33 -80 -56 -159 -63 -220 -5 -36 -13 -97 -20 -136 -9 -55 -9 -93 0 -165
6 -52 15 -126 19 -166 7 -70 18 -95 54 -121 21 -16 22 -45 1 -63 -13 -11 -55
-13 -194 -10 -187 3 -220 -3 -220 -39 0 -20 7 -20 232 -19 230 1 233 0 251
-22 40 -50 33 -52 -240 -50 -139 1 -254 -2 -257 -7 -3 -5 12 -17 32 -27 33
-17 65 -19 310 -20 230 0 274 -3 283 -15 11 -17 5 -64 -17 -128 -18 -54 -17
-165 1 -217 13 -37 12 -42 -11 -90 -28 -57 -57 -85 -88 -85 -11 0 -48 14 -81
30 -33 16 -68 30 -79 30 -10 0 -48 16 -85 35 -193 101 -237 113 -263 76 -18
-25 -64 -37 -83 -21 -9 8 -12 22 -8 42 3 16 0 54 -7 84 -12 48 -11 56 4 72 15
18 17 79 3 197 -1 13 10 25 37 40 70 37 72 74 4 75 -15 0 -30 5 -33 10 -12 19
16 40 51 40 39 0 44 16 14 48 -26 28 -56 28 -70 1 -7 -11 -17 -18 -24 -16 -21
8 -37 -30 -30 -74 7 -39 5 -43 -39 -85 -54 -52 -101 -60 -117 -21 -5 12 -18
33 -29 47 -47 62 -150 232 -180 298 -26 57 -32 81 -27 108 4 18 11 34 16 34 5
0 11 9 15 19 3 11 16 23 28 27 12 4 34 15 49 25 37 27 77 24 129 -10 89 -57
137 -137 150 -249 10 -88 14 -96 41 -81 14 7 18 17 14 32 -3 12 5 53 19 92 13
38 31 126 40 195 13 94 22 130 37 147 11 11 24 40 29 62 18 81 89 191 189 291
90 91 215 180 252 180 8 0 23 9 33 20 20 22 50 26 61 9z m1859 -200 c64 -71
69 -92 61 -282 -5 -146 -9 -174 -29 -220 -13 -29 -34 -78 -47 -110 -24 -62
-42 -77 -93 -79 -47 -2 -86 25 -128 85 -28 41 -40 74 -57 158 -24 116 -26 152
-13 195 5 16 16 54 26 85 18 64 69 123 149 177 65 42 86 41 131 -9z m-1551
-21 c51 -14 62 -22 81 -61 28 -56 20 -88 -35 -146 -72 -76 -83 -102 -88 -207
-5 -102 2 -123 63 -189 47 -52 51 -73 25 -127 -42 -90 -82 -108 -159 -69 -45
23 -55 35 -70 81 -6 19 -24 54 -40 78 -28 43 -28 43 -26 195 2 151 2 153 42
262 22 61 44 118 48 127 10 25 61 55 114 67 2 1 22 -4 45 -11z m157 -225 c48
-28 63 -74 55 -166 -8 -90 -14 -107 -63 -158 l-35 -37 -39 21 c-57 30 -73 60
-71 135 0 36 6 78 13 96 10 26 95 126 107 126 2 0 17 -8 33 -17z m-2513 -162
c3 -44 -1 -60 -23 -91 -33 -48 -48 -54 -71 -29 -16 18 -16 24 -5 52 7 18 18
46 25 63 31 83 69 85 74 5z m135 29 c18 -30 16 -50 -5 -50 -20 0 -48 33 -48
57 0 34 32 30 53 -7z m92 -113 c29 -30 68 -86 90 -130 21 -42 41 -77 45 -77 3
0 13 -13 23 -29 11 -19 18 -62 23 -132 5 -97 4 -106 -16 -132 -18 -23 -29 -27
-70 -27 -38 0 -58 7 -101 36 -58 39 -99 81 -99 103 0 7 -11 27 -25 43 -14 17
-25 38 -23 46 2 9 27 25 56 37 55 21 65 30 76 77 4 20 0 34 -18 55 -16 19 -25
46 -29 83 -3 30 -8 65 -12 78 -13 40 25 25 80 -31z m699 -202 c6 -11 19 -31
28 -46 9 -14 24 -45 34 -70 10 -24 29 -62 44 -84 66 -98 93 -152 94 -185 1
-33 -2 -36 -44 -51 -25 -9 -52 -18 -60 -22 -8 -3 -27 -8 -42 -11 -16 -3 -39
-9 -52 -12 -20 -5 -25 -1 -34 28 -32 98 -46 413 -21 459 13 24 38 21 53 -6z
m-404 -262 c17 -32 42 -73 55 -92 14 -19 25 -40 25 -47 0 -15 -51 -20 -64 -6
-4 4 -35 12 -69 17 -58 9 -62 12 -65 39 -2 16 1 33 7 39 6 6 11 17 11 23 0 22
41 84 56 84 7 0 27 -26 44 -57z m2422 -198 c9 -6 18 -19 20 -29 7 -39 -95 -47
-109 -8 -3 9 -17 29 -31 44 -14 15 -22 33 -19 42 5 13 15 11 64 -12 32 -15 65
-32 75 -37z m-1622 -11 c0 -12 -42 -64 -52 -64 -5 0 -23 -11 -40 -25 -38 -32
-53 -31 -87 3 -22 22 -27 34 -23 60 2 18 9 33 16 33 24 3 41 -3 49 -17 11 -19
21 -18 63 11 28 19 40 22 55 14 10 -5 19 -12 19 -15z m2300 -1 c-1 -23 -43
-49 -62 -37 -13 9 21 44 44 44 10 0 18 -3 18 -7z m-940 -97 c0 -3 -4 -8 -10
-11 -5 -3 -10 -1 -10 4 0 6 5 11 10 11 6 0 10 -2 10 -4z m0 -47 c0 -5 -4 -9
-10 -9 -5 0 -10 7 -10 16 0 8 5 12 10 9 6 -3 10 -10 10 -16z m-1087 -179 c14
-11 62 -36 108 -55 46 -20 88 -39 94 -44 5 -4 29 -14 53 -21 45 -14 82 -50 82
-80 0 -10 -11 -42 -24 -71 -13 -30 -27 -73 -30 -96 -4 -22 -15 -48 -24 -56
-11 -10 -65 -19 -162 -27 -93 -8 -160 -20 -188 -32 -26 -11 -68 -18 -103 -18
-53 0 -63 4 -96 33 -21 18 -55 41 -75 51 -26 11 -38 24 -39 39 -4 56 4 124 17
147 7 14 22 46 34 72 25 59 70 94 139 109 34 7 64 22 84 40 37 35 91 39 130 9z
m1833 -115 c9 -22 -11 -65 -47 -103 -33 -35 -59 -40 -83 -17 -17 18 -32 82
-21 93 9 9 106 41 128 41 10 1 20 -6 23 -14z m-3230 -9 c4 -11 12 -13 31 -5
39 14 91 11 131 -10 20 -11 51 -23 67 -28 45 -13 124 -143 87 -143 -5 0 -21
14 -37 30 -16 17 -33 30 -38 30 -5 0 -23 12 -40 26 l-31 26 -34 -38 c-58 -67
-66 -75 -89 -80 -43 -11 -56 2 -49 47 8 52 -2 109 -20 109 -15 0 -37 34 -27
44 12 11 44 6 49 -8z m3008 -89 c8 -13 7 -25 -6 -48 -10 -17 -18 -39 -18 -49
0 -29 -39 -107 -56 -114 -17 -7 -44 9 -44 26 0 5 9 28 20 50 11 23 20 54 20
69 0 73 54 115 84 66z m-434 -122 c0 -8 -4 -15 -10 -15 -5 0 -7 7 -4 15 4 8 8
15 10 15 2 0 4 -7 4 -15z m-2636 -132 c-9 -50 -11 -52 -34 -46 -16 4 -20 14
-20 44 0 37 2 39 30 39 30 0 31 -1 24 -37z m2960 -74 c-4 -90 -12 -157 -19
-169 -8 -13 -55 10 -55 26 0 7 8 17 17 22 14 8 16 25 14 110 -2 88 0 102 16
110 25 15 32 -8 27 -99z m-1314 -7 c0 -5 -10 -17 -21 -28 -12 -10 -35 -41 -51
-69 -16 -27 -38 -64 -48 -80 -11 -17 -26 -55 -33 -85 -9 -33 -20 -55 -28 -55
-34 0 -20 92 21 139 17 19 30 42 30 52 0 41 76 134 110 134 11 0 20 -4 20 -8z
m1205 -122 c7 -12 -39 -24 -61 -16 -8 3 -12 10 -9 16 8 13 62 13 70 0z m-95
-15 c0 -19 -36 -39 -45 -25 -11 18 3 40 25 40 11 0 20 -7 20 -15z m250 -35 c0
-5 -7 -10 -15 -10 -8 0 -18 0 -22 -1 -4 0 -9 4 -11 10 -2 6 8 11 22 11 14 0
26 -4 26 -10z m-43 -39 c30 -16 54 -14 68 6 20 26 31 8 45 -71 17 -100 10
-108 -73 -85 -61 17 -119 126 -86 162 8 8 16 11 19 7 3 -4 15 -12 27 -19z
m-1651 -158 c-11 -58 -16 -71 -30 -76 -17 -7 -5 74 15 96 20 23 22 21 15 -20z
m1824 -28 c0 -2 -5 -16 -12 -29 -11 -25 -11 -26 -25 -6 -8 11 -11 25 -8 30 6
10 45 14 45 5z m-320 -115 c17 -32 -4 -60 -43 -60 -82 0 -72 77 10 79 13 1 27
-8 33 -19z m-1589 -18 c-21 -39 -81 -116 -81 -105 0 12 26 62 56 109 18 26 40
23 25 -4z m-271 -16 c0 -3 -4 -8 -10 -11 -5 -3 -10 -1 -10 4 0 6 5 11 10 11 6
0 10 -2 10 -4z m1756 -52 c10 -38 -9 -51 -42 -29 l-28 18 23 18 c31 25 39 24
47 -7z m-142 -36 c7 -51 6 -53 -26 -80 -45 -37 -138 -37 -138 1 1 31 108 131
140 131 13 0 19 -12 24 -52z m342 7 c15 -24 17 -24 46 -9 60 31 134 -3 144
-68 6 -33 4 -38 -25 -53 -46 -23 -93 -6 -132 48 -17 23 -41 48 -55 55 -26 14
-33 52 -9 52 8 0 22 -11 31 -25z m-2135 -11 c9 -25 5 -31 -43 -75 -57 -52 -72
-58 -82 -33 -11 28 -6 38 38 87 50 53 72 59 87 21z m1983 -49 c8 -32 56 -37
56 -5 0 31 19 24 64 -22 23 -24 53 -50 66 -59 18 -12 23 -24 22 -54 -2 -43
-14 -55 -55 -55 -19 0 -39 -12 -66 -40 -36 -38 -41 -40 -97 -40 -58 0 -59 0
-121 62 -61 61 -63 64 -63 114 0 70 19 90 100 108 90 19 87 19 94 -9z m-1649
-28 c14 -17 34 -26 65 -30 48 -6 80 -34 80 -68 0 -15 -7 -19 -38 -19 -38 0
-74 19 -103 54 -15 18 -19 18 -49 6 -18 -7 -62 -37 -98 -67 -70 -57 -108 -67
-150 -37 -18 13 -22 25 -22 74 0 91 12 108 79 115 31 3 63 7 71 8 8 1 44 -1
80 -4 51 -6 68 -12 85 -32z m2111 25 c17 -11 22 -35 12 -54 -12 -25 -83 -25
-97 -1 -18 32 52 78 85 55z m-1780 -166 c11 -45 -25 -64 -52 -28 -24 31 -17
52 16 52 23 0 31 -5 36 -24z m-146 -6 c0 -5 -4 -10 -10 -10 -5 0 -10 5 -10 10
0 6 5 10 10 10 6 0 10 -4 10 -10z m64 -43 c13 -9 16 -20 11 -40 -9 -33 -25
-31 -43 6 -20 41 -3 59 32 34z m-730 -148 c38 -18 40 -40 10 -161 -3 -15 -14
-30 -24 -33 -10 -3 -22 -20 -25 -37 -10 -42 15 -61 67 -53 31 6 37 3 43 -14 3
-12 15 -21 26 -21 22 0 59 34 59 55 0 8 14 30 30 48 27 31 30 42 30 100 0 56
3 68 20 77 41 22 130 -67 130 -130 0 -50 8 -70 29 -70 29 0 79 61 83 100 2 29
7 35 29 38 20 2 28 -2 32 -18 8 -31 2 -40 -53 -85 -47 -38 -49 -43 -51 -92 -1
-29 -3 -61 -3 -70 -1 -27 28 -26 62 2 l30 25 22 -27 c12 -16 35 -31 53 -34
l32 -6 -64 -61 -64 -62 -51 6 c-99 12 -100 14 -106 137 -5 101 -7 110 -30 127
-27 21 -60 26 -60 9 0 -5 11 -27 25 -47 28 -41 33 -110 14 -188 -15 -60 -38
-74 -122 -74 -52 0 -79 6 -117 25 -26 13 -81 30 -122 37 -128 21 -146 68 -71
193 20 33 44 69 53 80 11 12 18 36 18 60 -1 22 9 59 21 83 14 27 19 51 15 67
-7 28 -5 29 30 14z m-102 -69 c-2 -25 -8 -49 -13 -55 -14 -14 -42 7 -54 40 -8
23 -6 30 14 46 39 32 57 21 53 -31z m255 -66 c-14 -28 -22 -34 -47 -34 -27 0
-30 3 -30 29 0 20 11 42 35 67 19 20 36 42 36 48 1 6 6 -8 12 -32 8 -35 7 -50
-6 -78z m563 81 c0 -14 -4 -25 -10 -25 -11 0 -14 33 -3 43 11 11 13 8 13 -18z
m-284 4 c9 -15 -11 -33 -30 -26 -9 4 -13 13 -10 22 7 17 30 20 40 4z m-636
-122 c76 8 84 -7 41 -74 -17 -27 -43 -70 -58 -97 -16 -28 -45 -68 -66 -89 -34
-35 -40 -38 -54 -25 -12 13 -13 19 -1 37 12 20 10 24 -12 41 -14 10 -36 20
-50 22 -16 2 -28 12 -34 29 -7 21 -4 30 19 55 15 16 36 46 46 66 20 39 47 50
87 36 12 -4 49 -5 82 -1z"/>
<path d="M6516 4225 c-6 -16 -24 -25 -93 -46 -46 -13 -50 -18 -31 -37 27 -27
132 -6 141 29 5 17 15 19 107 19 99 0 103 -1 137 -30 21 -19 45 -30 63 -30 30
0 80 18 80 30 0 16 -27 30 -57 30 -23 0 -41 8 -57 25 -23 24 -27 25 -154 25
-106 0 -131 -3 -136 -15z"/>
<path d="M6560 4136 c0 -16 37 -36 64 -36 50 0 52 13 4 27 -44 13 -68 16 -68
9z"/>
<path d="M6698 4113 c6 -2 18 -2 25 0 6 3 1 5 -13 5 -14 0 -19 -2 -12 -5z"/>
<path d="M2189 8011 c-22 -22 -29 -39 -29 -66 0 -32 8 -45 50 -86 28 -27 54
-49 58 -49 4 0 19 15 34 34 l28 34 -30 65 c-29 65 -53 97 -71 97 -6 0 -24 -13
-40 -29z"/>
<path d="M1900 7655 c-7 -8 -13 -43 -13 -78 0 -59 9 -87 45 -139 10 -14 8 -26
-9 -62 -46 -95 -49 -194 -8 -293 12 -29 19 -34 42 -31 20 2 33 12 44 35 25 50
49 83 59 83 6 0 18 -17 26 -37 9 -21 23 -50 31 -65 22 -43 52 -140 53 -168 0
-14 8 -36 17 -49 l16 -24 21 26 21 27 89 -85 c98 -94 122 -102 183 -65 40 24
46 55 40 192 -5 113 -17 179 -37 203 -20 24 -28 7 -39 -85 -13 -99 -25 -115
-84 -105 -21 3 -50 13 -63 22 -22 14 -144 156 -144 167 0 2 -16 32 -35 66 -38
66 -43 104 -21 136 8 11 17 40 21 65 6 41 4 49 -19 74 -15 16 -29 40 -33 54
-6 29 -31 61 -46 61 -6 0 -23 -14 -37 -32 l-27 -32 -16 34 c-10 18 -17 41 -17
51 0 27 -22 69 -35 69 -7 0 -18 -7 -25 -15z"/>
<path d="M9077 7639 c13 -13 90 -29 98 -21 14 14 -22 32 -63 32 -34 0 -43 -3
-35 -11z"/>
<path d="M7485 7368 c-22 -10 -75 -79 -75 -97 0 -25 32 -21 89 10 60 31 76 49
46 49 -8 0 -15 4 -15 8 0 5 -6 15 -12 24 -10 12 -18 14 -33 6z"/>
<path d="M8865 7101 c-97 -17 -167 -75 -209 -174 -25 -59 -27 -71 -16 -97 20
-49 110 -118 175 -135 65 -17 84 -30 111 -80 19 -36 53 -53 92 -47 27 4 28 21
1 66 -11 19 -18 40 -14 46 9 15 51 12 65 -5 16 -19 62 -19 98 -1 15 7 52 19
82 27 30 7 63 19 72 27 16 13 16 16 1 38 -9 14 -14 26 -12 27 2 1 22 11 44 22
61 31 57 50 -27 132 -95 92 -164 126 -294 147 -108 17 -108 17 -169 7z m173
-137 c42 -14 91 -36 109 -50 17 -13 36 -24 41 -24 5 0 17 -8 26 -19 15 -17 16
-20 1 -35 -13 -13 -32 -14 -108 -9 l-92 6 -55 -42 c-30 -22 -63 -41 -73 -41
-21 0 -77 27 -77 38 0 4 -13 21 -30 38 -44 48 -48 78 -15 109 16 14 40 25 54
25 14 1 40 7 56 15 44 20 78 18 163 -11z"/>
<path d="M1770 6810 c-14 -26 -21 -192 -11 -247 9 -48 22 -80 67 -179 8 -17
38 -53 66 -80 28 -27 57 -64 65 -82 18 -43 8 -131 -16 -133 -30 -2 -43 2 -69
26 -49 43 -166 115 -189 115 -19 0 -23 -5 -23 -32 0 -17 6 -39 13 -47 7 -9 20
-36 27 -60 28 -89 49 -107 187 -169 33 -15 63 -38 87 -69 37 -48 56 -107 38
-125 -16 -16 -72 -24 -139 -20 -55 3 -66 8 -90 35 -16 17 -40 43 -55 59 -14
15 -29 41 -33 57 -7 32 -131 246 -172 296 -13 17 -55 71 -93 120 -74 98 -140
167 -216 231 -61 50 -141 97 -153 89 -6 -3 -15 -29 -21 -58 l-12 -53 41 -63
c22 -35 41 -70 41 -77 0 -19 79 -150 136 -227 27 -36 69 -93 93 -127 97 -135
254 -270 418 -360 58 -32 63 -37 69 -77 7 -50 -1 -93 -19 -93 -6 0 -25 9 -42
21 -51 35 -176 89 -206 89 -17 0 -47 -13 -71 -30 -43 -32 -67 -37 -85 -19 -8
8 -14 5 -23 -12 -17 -32 -7 -126 19 -174 12 -22 26 -57 32 -78 11 -40 106
-159 162 -201 18 -14 60 -37 93 -52 87 -38 166 -32 252 20 113 68 117 108 28
284 -50 98 -66 141 -71 188 -8 74 5 90 64 80 61 -9 100 3 147 49 31 29 44 50
44 68 0 36 -39 131 -82 198 -43 67 -59 112 -47 130 5 8 9 49 9 91 0 86 16 116
50 98 43 -23 136 -3 172 37 10 10 25 36 34 58 20 48 12 148 -17 214 -23 52
-24 70 -4 107 18 35 18 51 4 110 -17 66 -35 56 -49 -27 l-12 -70 -28 23 c-16
13 -64 55 -108 95 l-80 71 -107 -1 c-86 -1 -108 -4 -115 -17z m204 -169 c27
-27 69 -60 95 -73 65 -33 141 -108 141 -140 0 -33 -19 -89 -38 -110 -25 -29
-76 -22 -135 17 -89 59 -131 138 -142 273 -7 77 -6 82 12 82 10 0 40 -22 67
-49z m-724 -263 c137 -138 392 -461 406 -516 4 -12 13 -26 22 -31 8 -5 12 -13
8 -19 -10 -16 -84 23 -119 62 -144 158 -188 208 -222 251 -22 27 -52 63 -67
80 -16 16 -28 33 -28 37 0 5 -15 25 -34 45 -48 55 -92 145 -80 165 12 19 36 3
114 -74z m306 -962 c8 -14 32 -30 52 -37 20 -6 49 -20 63 -30 16 -11 54 -20
104 -25 88 -8 108 -21 124 -81 23 -82 9 -133 -40 -151 -39 -14 -140 21 -184
65 -52 52 -125 157 -125 180 0 11 -11 30 -24 42 -15 14 -22 30 -19 42 7 26 29
24 49 -5z"/>
<path d="M9016 6517 c-63 -51 -113 -106 -133 -145 -26 -54 -24 -130 6 -173 37
-54 141 -126 271 -189 8 -4 19 -19 24 -33 11 -30 -6 -57 -36 -57 -31 0 -66
-29 -98 -81 -16 -27 -30 -53 -30 -57 0 -22 111 -150 151 -174 55 -35 139 -49
139 -24 0 9 -10 26 -22 36 -93 81 -91 77 -86 131 3 29 13 58 24 70 39 44 175
6 279 -77 33 -27 52 -33 113 -39 124 -12 135 23 36 125 -47 48 -75 70 -99 74
-18 4 -58 20 -89 36 -44 24 -68 30 -116 30 -55 0 -63 3 -97 35 -20 19 -41 35
-45 35 -4 0 -35 21 -68 47 -79 61 -140 151 -140 205 0 51 23 94 63 118 48 30
82 25 168 -26 88 -51 144 -107 133 -133 -30 -71 -9 -86 124 -95 l103 -6 30 29
c16 16 29 38 29 47 0 23 -133 152 -185 180 -22 12 -65 35 -95 52 -68 38 -235
92 -281 91 -23 0 -47 -10 -73 -32z"/>
<path d="M9840 5740 c-34 -34 -25 -56 42 -105 34 -25 67 -45 73 -45 51 1 85
44 63 80 -7 11 -16 20 -20 20 -5 0 -8 6 -8 14 0 8 -12 24 -26 35 -35 28 -97
28 -124 1z"/>
<path d="M9321 5546 c-7 -8 -38 -26 -69 -41 -157 -76 -186 -146 -116 -281 43
-83 94 -138 194 -209 70 -50 150 -132 150 -154 0 -19 -26 -17 -55 4 -28 20
-114 51 -160 57 -11 1 -44 -9 -72 -22 l-53 -25 0 -52 c0 -45 6 -61 46 -120 58
-85 172 -203 197 -203 16 0 18 5 12 28 -3 15 -19 43 -34 62 -15 19 -36 50 -45
68 -17 33 -17 34 10 73 23 34 32 39 66 39 24 0 51 -8 67 -20 16 -10 49 -24 75
-30 54 -12 196 -81 215 -104 13 -15 12 -33 -5 -108 -5 -22 -1 -28 28 -42 43
-22 60 -35 81 -68 21 -34 54 -36 90 -8 36 29 58 25 118 -20 50 -37 55 -39 67
-23 11 15 10 53 -4 104 -2 9 -26 28 -53 43 -55 29 -74 53 -92 117 -7 24 -16
49 -20 54 -3 6 -7 29 -6 53 0 52 -34 94 -100 124 -23 10 -45 23 -48 28 -10 17
-44 11 -55 -9 -7 -15 -4 -32 15 -72 13 -30 21 -57 16 -62 -12 -12 -76 2 -98
21 -10 10 -36 30 -58 46 -43 31 -262 250 -301 302 -13 17 -36 59 -49 93 -22
53 -24 67 -15 101 14 51 38 79 76 86 37 7 58 -12 103 -91 16 -27 61 -87 100
-132 57 -65 84 -88 135 -113 83 -39 136 -40 165 -4 30 38 27 89 -9 158 -41 79
-50 91 -123 164 -47 48 -84 75 -152 108 -50 24 -97 44 -105 44 -8 0 -35 11
-59 25 -50 29 -55 30 -70 11z m262 -203 c77 -53 130 -108 153 -158 21 -44 22
-51 8 -61 -8 -7 -26 -9 -39 -5 -32 8 -117 73 -187 143 -46 46 -58 64 -58 89 0
32 0 32 43 25 23 -4 59 -19 80 -33z"/>
<path d="M1014 5110 c-42 -9 -97 -44 -128 -80 -35 -42 -72 -168 -85 -288 -18
-173 -16 -209 40 -492 6 -30 22 -77 34 -105 13 -27 28 -76 34 -107 17 -97 111
-207 203 -239 110 -38 124 -23 114 124 -6 101 -18 141 -39 134 -7 -2 -13 -18
-15 -36 -2 -19 -8 -31 -15 -28 -11 3 -20 39 -63 225 -7 35 -23 75 -34 89 -11
14 -20 39 -20 54 0 38 24 38 76 1 21 -15 53 -34 69 -42 17 -8 62 -37 100 -64
39 -28 96 -67 128 -89 75 -50 97 -85 97 -159 l0 -58 34 0 c28 0 40 -7 66 -40
17 -22 40 -40 51 -40 12 0 26 15 39 40 24 47 35 49 81 14 33 -24 106 -69 199
-121 49 -28 131 -36 151 -16 26 26 -65 109 -144 131 -39 11 -156 80 -194 115
-30 27 -29 58 1 86 18 17 26 38 31 81 4 32 14 67 23 77 25 28 42 60 42 78 0 9
16 50 35 91 19 41 35 79 35 84 0 6 10 27 23 48 13 20 29 53 37 72 7 19 28 67
46 106 37 81 56 142 45 148 -4 3 -48 6 -98 7 -85 2 -94 1 -126 -24 -25 -19
-40 -43 -53 -79 -9 -29 -25 -69 -35 -89 -9 -19 -25 -64 -34 -99 -9 -35 -25
-76 -35 -90 -10 -14 -28 -62 -39 -106 -11 -43 -32 -112 -46 -152 -14 -41 -25
-81 -25 -90 0 -10 -5 -24 -10 -32 -9 -13 -12 -12 -25 4 -8 11 -15 36 -15 55 0
47 -26 181 -49 256 -10 33 -24 94 -31 135 -32 196 -120 375 -214 434 -108 69
-191 93 -262 76z m178 -158 c66 -75 141 -239 179 -396 11 -44 23 -84 28 -90 8
-11 43 -117 54 -166 15 -62 -29 -62 -97 0 -37 33 -138 93 -266 156 -27 13 -51
33 -58 49 -15 33 -17 302 -2 360 5 22 10 53 10 69 0 42 26 66 71 66 32 0 43
-7 81 -48z"/>
<path d="M9396 4481 c-3 -5 -41 -23 -85 -41 -68 -27 -82 -37 -96 -67 -21 -43
-14 -73 31 -135 19 -27 34 -51 34 -56 0 -4 25 -41 55 -82 30 -41 55 -78 55
-82 0 -22 -49 6 -143 83 -18 14 -52 40 -77 57 -25 18 -83 62 -130 97 -139 106
-256 151 -290 110 -21 -25 -3 -61 52 -106 61 -48 307 -296 418 -420 118 -132
130 -143 141 -132 19 19 -91 176 -248 356 -34 38 -41 57 -22 57 13 0 152 -101
280 -205 55 -44 120 -97 147 -118 96 -78 166 -127 182 -127 24 0 40 21 40 52
0 21 -21 50 -86 120 -135 146 -310 425 -302 481 2 16 11 23 34 25 37 4 83 -31
122 -92 14 -22 72 -89 130 -148 117 -121 139 -130 172 -76 17 29 18 34 4 67
-39 95 -148 214 -279 305 -108 76 -132 89 -139 77z"/>
<path d="M3572 3398 c-14 -14 -16 -58 -3 -58 9 0 51 52 51 64 0 11 -36 6 -48
-6z"/>
<path d="M6840 3290 c0 -25 4 -31 18 -28 11 2 17 12 17 28 0 16 -6 26 -17 28
-14 3 -18 -3 -18 -28z"/>
<path d="M2065 3136 c-16 -8 -50 -35 -75 -61 -57 -61 -209 -162 -263 -175 -23
-6 -63 -17 -89 -25 -25 -8 -92 -18 -147 -21 l-102 -7 -29 -37 c-37 -47 -38
-74 -4 -97 15 -10 38 -29 51 -43 40 -40 133 -187 148 -233 31 -95 56 -217 61
-297 6 -98 17 -126 51 -135 30 -7 50 5 117 70 46 45 206 155 225 155 4 0 30
10 57 22 58 25 206 51 286 49 55 -1 59 0 78 31 11 18 20 42 20 52 0 17 -51 83
-123 161 -91 98 -163 290 -174 468 -5 65 -11 94 -25 113 -22 28 -23 28 -63 10z
m28 -389 c26 -73 83 -179 114 -212 46 -48 73 -91 73 -115 0 -22 -3 -22 -54
-17 -43 4 -63 1 -93 -14 -21 -11 -63 -25 -93 -30 -30 -6 -66 -18 -80 -28 -14
-10 -46 -29 -70 -41 -25 -12 -71 -47 -102 -76 -77 -74 -82 -73 -79 16 6 146
-62 323 -166 429 -35 36 -63 69 -63 72 0 22 34 31 95 24 55 -5 72 -3 103 13
20 10 62 25 92 32 71 18 160 70 235 140 l60 55 6 -100 c3 -55 13 -121 22 -148z"/>
<path d="M9035 3094 c-11 -18 -20 -62 -26 -133 -10 -115 -11 -122 -39 -196
-10 -27 -21 -62 -24 -76 -7 -34 -150 -236 -193 -273 -37 -32 -43 -67 -16 -106
25 -37 27 -37 127 -37 70 0 103 -5 137 -20 25 -11 69 -26 99 -33 78 -19 250
-140 293 -206 41 -63 60 -66 102 -17 30 34 33 46 40 123 3 47 15 110 26 140
11 30 31 85 43 121 31 87 62 134 160 243 94 104 102 118 77 140 -21 19 -89 48
-99 42 -4 -2 -53 -1 -109 4 -75 6 -109 13 -130 27 -15 11 -49 26 -75 34 -51
14 -156 87 -268 187 -39 34 -79 62 -89 62 -10 0 -26 -12 -36 -26z m148 -198
c77 -69 216 -146 282 -156 28 -4 76 -13 108 -20 33 -6 65 -9 73 -6 8 3 17 -1
20 -9 6 -14 -30 -68 -84 -127 -32 -35 -92 -171 -103 -233 -4 -27 -13 -67 -19
-87 -6 -21 -10 -44 -9 -50 3 -22 -1 -42 -10 -56 -6 -10 -29 2 -94 52 -131 100
-203 132 -312 141 -97 7 -161 20 -170 34 -3 5 17 33 43 63 124 136 182 261
182 393 0 78 7 115 22 115 5 0 37 -24 71 -54z"/>
<path d="M7842 2053 c-54 -55 -79 -103 -101 -193 -23 -90 -44 -270 -35 -297 3
-10 15 -36 27 -59 27 -54 19 -77 -47 -146 -61 -63 -86 -67 -111 -17 -25 47
-18 121 20 233 40 119 43 158 15 186 -24 24 -24 24 -95 5 -35 -9 -71 -28 -97
-50 -47 -40 -85 -45 -111 -15 -9 11 -21 20 -26 20 -23 0 -50 -75 -58 -162 -3
-38 -7 -68 -9 -68 -6 0 -53 43 -102 93 -60 60 -88 62 -165 10 -77 -53 -148
-135 -192 -223 -33 -64 -39 -88 -45 -164 l-7 -90 -43 -35 c-56 -47 -194 -121
-225 -121 -49 0 -42 25 31 119 24 31 44 60 44 64 0 5 15 29 32 55 78 112 104
195 84 259 -9 27 -29 32 -81 18 -32 -8 -63 -33 -150 -122 -107 -111 -138 -131
-147 -95 -9 32 125 280 194 361 26 31 48 64 48 73 0 16 -8 17 -62 12 -37 -4
-70 -13 -80 -23 -25 -24 -94 -136 -129 -211 -17 -36 -41 -79 -55 -97 -13 -17
-24 -36 -24 -41 0 -5 -9 -17 -20 -27 -11 -10 -37 -48 -57 -84 -44 -80 -144
-210 -181 -238 -15 -11 -44 -26 -66 -33 -34 -11 -41 -10 -65 7 -20 16 -27 30
-29 66 -4 53 1 64 67 149 59 78 65 96 48 137 -12 28 -12 39 0 73 15 43 9 76
-16 95 -24 19 -89 16 -119 -6 -15 -10 -49 -26 -77 -35 -27 -10 -70 -33 -94
-52 -24 -19 -50 -34 -57 -34 -7 0 -39 -25 -71 -56 -32 -31 -69 -63 -81 -72
-22 -14 -83 -97 -143 -195 -24 -40 -130 -126 -156 -127 -18 0 -16 13 6 41 10
13 26 50 35 81 9 31 20 58 24 60 4 2 29 42 55 91 48 89 53 121 22 147 -17 14
-79 -33 -231 -177 -155 -145 -210 -183 -267 -183 -40 0 -46 3 -62 34 -17 31
-17 38 -4 62 21 40 155 158 236 209 39 24 108 60 152 81 44 20 82 44 84 53 5
21 -30 91 -46 91 -7 0 -28 -11 -47 -24 -19 -12 -52 -26 -72 -30 -20 -4 -65
-26 -100 -50 -35 -24 -73 -46 -86 -50 -34 -11 -152 -137 -198 -213 -34 -56
-52 -74 -99 -101 -71 -40 -125 -51 -144 -28 -23 27 22 98 135 216 132 137 147
167 104 210 -26 26 -56 25 -105 -1 -22 -12 -59 -32 -81 -44 -66 -35 -212 -144
-285 -214 -73 -68 -99 -74 -99 -22 0 23 15 45 73 103 41 40 92 88 115 106 23
18 42 40 42 47 0 19 -52 45 -89 45 -39 0 -144 -97 -205 -190 -66 -100 -143
-150 -228 -150 -52 0 -105 30 -119 68 -19 50 39 125 139 176 52 27 172 145
172 170 0 29 -46 49 -97 41 -54 -8 -80 -22 -148 -84 -28 -26 -63 -56 -78 -69
-15 -12 -47 -62 -70 -110 -37 -77 -42 -95 -42 -157 0 -67 2 -73 39 -118 41
-50 53 -54 120 -36 86 22 112 33 168 71 49 34 61 38 74 27 11 -9 14 -22 10
-45 -5 -26 0 -39 26 -72 18 -23 36 -41 39 -41 3 -1 41 34 85 77 173 167 354
297 354 253 0 -4 -16 -28 -35 -52 -141 -179 -157 -207 -163 -277 -5 -60 9 -82
53 -82 29 0 179 74 212 105 16 14 43 32 61 41 42 20 62 6 62 -43 0 -48 14 -70
62 -93 56 -27 65 -26 128 15 30 19 60 35 67 35 7 0 25 12 40 26 15 15 47 42
70 61 23 19 45 43 48 52 6 20 51 48 61 38 7 -7 -76 -173 -122 -242 -33 -50
-121 -134 -200 -191 -44 -32 -80 -71 -139 -152 -65 -91 -60 -190 8 -153 52 29
188 171 282 296 83 109 165 189 232 224 21 10 56 38 78 60 57 60 70 56 115
-42 44 -96 58 -111 95 -101 32 8 180 147 232 217 32 44 63 61 63 36 0 -6 -12
-54 -26 -105 -32 -119 -30 -137 16 -146 19 -4 47 -10 61 -13 22 -6 38 4 111
72 114 106 144 141 213 252 5 9 19 30 31 46 11 17 37 60 58 97 20 36 44 72 52
79 9 7 24 30 35 51 11 21 24 38 29 38 18 0 10 -31 -17 -66 -21 -29 -26 -44
-24 -89 1 -39 -4 -64 -20 -92 -50 -87 -68 -126 -94 -195 -15 -40 -40 -93 -56
-118 -81 -130 -118 -305 -88 -413 18 -65 35 -51 73 63 8 25 24 64 35 87 12 23
21 60 21 82 0 55 34 141 68 174 27 26 29 27 97 15 39 -6 103 -11 143 -11 67 0
76 2 125 36 28 20 63 47 77 59 65 60 152 128 165 128 8 0 27 -18 41 -40 36
-54 119 -113 146 -104 44 13 121 79 170 143 48 64 79 90 106 91 7 0 28 11 47
25 31 24 34 32 45 113 7 48 18 90 24 94 7 4 19 25 26 48 21 62 146 158 172
132 4 -4 -1 -59 -12 -122 -31 -182 -11 -273 72 -316 25 -13 29 -12 58 12 17
14 43 47 58 73 15 25 41 68 59 95 18 26 33 56 33 66 0 28 21 36 39 14 25 -30
83 -70 122 -84 31 -11 41 -10 80 7 82 36 158 148 159 233 0 14 7 43 15 65 16
45 20 165 5 165 -5 0 -12 -12 -16 -27 -14 -66 -63 -178 -101 -230 -27 -37 -73
-63 -94 -52 -7 3 -27 13 -44 20 -42 18 -65 48 -65 85 0 22 -7 36 -23 47 -41
27 -59 131 -36 206 40 127 57 150 85 114 25 -34 12 -218 -22 -307 -9 -24 19
-20 43 7 22 24 43 89 43 132 0 26 8 63 32 148 8 26 8 44 1 60 -6 12 -17 38
-24 57 -25 71 -71 79 -127 23z m-789 -575 c-12 -20 -32 -118 -32 -167 -1 -24
4 -72 11 -107 14 -77 2 -100 -75 -144 -67 -38 -92 -38 -112 0 -17 33 -21 173
-5 214 11 31 133 180 163 201 27 19 62 20 50 3z m179 -15 c31 -37 41 -81 30
-126 -6 -23 -14 -59 -17 -79 -5 -34 -9 -38 -34 -38 -47 0 -52 16 -43 128 11
121 29 155 64 115z m-1492 -146 c0 -12 -19 -42 -96 -157 -10 -14 -74 -80 -142
-148 -158 -155 -177 -156 -181 -13 -1 58 27 102 98 150 31 22 63 46 70 55 7 9
18 16 23 16 5 0 40 20 77 43 92 61 151 81 151 54z m751 -3 c16 -19 -1 -92 -31
-134 -11 -16 -20 -31 -20 -36 0 -4 -11 -21 -24 -39 -13 -17 -34 -53 -47 -79
-27 -59 -43 -66 -74 -32 -25 27 -38 27 -82 -2 -20 -12 -24 -12 -29 2 -7 18 -5
24 33 87 72 118 123 173 214 228 41 25 43 25 60 5z"/>
<path d="M3980 1771 c-19 -9 -48 -24 -64 -32 -38 -18 -50 -40 -42 -73 15 -62
92 -51 158 22 39 43 41 64 10 90 -20 15 -20 15 -62 -7z"/>
<path d="M3487 1744 c-8 -8 3 -34 14 -34 11 0 12 27 0 34 -4 3 -11 3 -14 0z"/>
</g>
</svg>
