 <svg  version="1.0" xmlns="http://www.w3.org/2000/svg"  width="300.000000pt" height="157.000000pt" viewBox="0 0 300.000000 157.000000"  preserveAspectRatio="xMidYMid meet">  <g transform="translate(0.000000,157.000000) scale(0.100000,-0.100000)" fill="#db4343" stroke="none"> <path d="M1443 1392 c-11 -7 -63 -220 -63 -259 0 -17 -14 -22 -122 -38 -141 -20 -148 -22 -148 -41 0 -17 -10 -17 132 2 66 9 121 15 123 13 1 -2 -9 -70 -23 -151 l-25 -148 -49 -54 c-56 -63 -131 -116 -165 -116 -42 0 -50 54 -22 146 8 27 17 34 54 43 52 13 81 48 71 85 -15 59 -92 34 -130 -42 -13 -26 -29 -65 -36 -87 -33 -104 -191 -385 -216 -385 -14 0 -24 46 -24 114 0 168 101 711 140 750 17 17 11 36 -10 36 -30 0 -56 -81 -105 -331 l-27 -137 -47 -5 c-25 -3 -47 -4 -48 -3 -1 1 4 42 12 91 8 50 15 127 15 172 0 72 -3 85 -24 110 -21 25 -26 26 -47 15 -41 -22 -81 -91 -153 -265 l-71 -170 -55 -16 c-35 -11 -56 -23 -58 -34 -4 -21 4 -21 58 -2 23 8 44 15 46 15 7 0 -97 -226 -121 -262 -26 -39 -43 -46 -63 -26 -17 17 -28 -18 -12 -37 43 -52 123 49 207 263 14 37 27 68 27 69 3 4 189 34 192 30 2 -2 -3 -48 -11 -103 -25 -168 -17 -274 21 -274 13 0 15 7 9 38 -10 51 -6 181 8 272 l12 74 44 8 c25 4 47 6 49 3 2 -2 -1 -47 -7 -99 -6 -52 -11 -135 -11 -186 0 -148 36 -187 103 -110 35 41 135 214 144 250 7 27 19 25 27 -4 3 -13 18 -29 36 -36 25 -11 35 -9 76 10 26 13 71 48 102 79 l55 56 -7 -35 c-7 -36 -40 -315 -50 -427 -5 -55 -4 -63 12 -63 23 0 46 49 31 66 -10 12 26 358 51 489 5 28 19 114 31 191 l21 141 61 7 c33 3 62 4 64 2 3 -2 -7 -58 -21 -123 -57 -263 -86 -528 -58 -528 9 0 26 40 46 105 51 164 109 280 141 280 8 0 18 -21 25 -56 7 -35 22 -67 39 -86 26 -29 30 -30 61 -19 19 6 44 21 57 33 l23 21 0 -49 c1 -134 115 -130 242 10 l38 41 -6 -42 c-11 -74 24 -124 75 -108 11 3 45 33 75 66 50 54 56 57 56 35 0 -54 56 -33 114 43 42 56 54 60 37 10 -15 -42 -14 -132 1 -147 23 -23 54 -12 99 36 55 56 124 166 114 181 -9 15 -35 14 -35 -2 0 -17 -95 -155 -122 -179 -12 -10 -26 -18 -31 -18 -16 0 0 117 28 205 14 44 25 85 25 92 0 21 -28 15 -35 -8 -4 -11 -10 -19 -13 -17 -58 29 -64 31 -90 22 -19 -7 -37 -29 -64 -79 -41 -79 -150 -205 -177 -205 -31 0 -32 67 -2 200 16 76 -18 83 -38 8 -7 -31 -28 -61 -71 -106 -127 -132 -202 -136 -187 -11 8 64 25 87 70 100 67 18 97 68 61 103 -36 37 -89 4 -128 -78 -39 -82 -134 -151 -157 -115 -5 8 -16 40 -25 71 -21 72 -43 95 -76 77 -13 -7 -29 -19 -36 -28 -13 -15 -66 -124 -91 -185 -17 -41 -21 -29 -10 29 45 231 66 335 84 413 6 23 7 24 118 20 62 -2 118 -6 126 -8 8 -3 16 2 18 12 6 25 -29 32 -144 31 l-103 -1 6 26 c4 15 15 47 25 71 24 54 24 61 0 61 -15 0 -24 -15 -40 -62 -12 -34 -21 -70 -21 -79 0 -14 -11 -19 -47 -24 -27 -3 -58 -8 -70 -11 -13 -2 -23 -1 -23 4 0 15 41 196 51 230 12 35 3 57 -18 44z m-749 -274 c3 -13 6 -42 6 -65 0 -44 -29 -265 -35 -272 -6 -6 -177 -32 -182 -28 -5 5 113 282 139 326 21 36 45 61 59 61 4 0 9 -10 13 -22z m486 -258 c0 -6 -15 -19 -32 -30 -37 -22 -50 -10 -22 21 18 20 54 26 54 9z m802 -5 c1 -13 -49 -41 -58 -32 -10 10 27 48 43 45 8 -2 14 -7 15 -13z m476 -7 c7 -7 12 -18 12 -26 0 -20 -109 -154 -120 -147 -14 9 28 129 58 162 23 26 33 28 50 11z"/> <path d="M2171 971 c-15 -10 -8 -41 9 -41 15 0 25 29 14 40 -5 5 -15 5 -23 1z"/> </g> </svg> 