<?xml version="1.0" encoding="UTF-8"?>
<svg id="Layer_1" data-name="Layer 1" xmlns="http://www.w3.org/2000/svg" viewBox="0 0 185.9 237.71">
  <defs>
    <style>
      .cls-1 {
        fill: #7b5aa6;
      }
    </style>
  </defs>
  <path class="cls-1" d="M141.23,55.74c-9.79,9.32-20.34,17.59-32.64,22.87-21.05,9.04-43.41,2.1-64.28-8.31,24.39-27.78,65.45-33.94,96.92-14.56ZM122.85,155.4c-25.21-4.16-45.62,9.22-63.63,26.23,31.48,19.45,72.59,13.31,97-14.49-11.04-5.48-22.34-9.92-33.37-11.75ZM117.98,131.68c-4.01-3.91-10.85-9.29-11.43-15.23-.6-6.15,4.46-12.93,7.16-18.16-4.11,3.94-7.79,9.14-13.17,11.45-6.79,2.92-14.27-2.6-20.02-5.75-.27-.15-.53-.35-.82-.09,1.95,1.64,3.91,3.42,5.68,5.27,7.76,8.1,7.88,12.15,2.85,21.97-1.15,2.24-2.51,4.37-3.68,6.59,5.25-5.14,10.92-13.5,19.25-12.13,4.97.82,10.21,4.34,14.51,6.85.16-.36-.11-.54-.33-.76ZM26.13,122.48c.45,5.98,1.91,11.83,3.37,17.63,1.02,4.07,2.06,8.13,2.77,12.27.73,4.23,1,8.52,1.29,12.79.33,4.86.41,9.73.22,14.59-.16,4.13-.53,8.26-1.11,12.36-.48,3.35-1.1,6.69-1.89,9.98-.6,2.51-1.3,5.01-2.11,7.46-.78,2.35-1.7,4.54-2.81,6.76,3.2-3.8,6.26-7.71,9.16-11.74,3.23-4.47,6.27-9.08,9.11-13.81,2.87-4.78,5.44-9.69,7.96-14.66,8.08-15.93,14.09-32.55,12.64-48.68-1.55-17.27-13.04-33.36-26.38-47.69-.53.77-1.04,1.55-1.53,2.34-.06.09-.11.17-.16.26-.02.02-.03.05-.05.07-.15.24-.3.49-.45.74-.03.05-.06.1-.09.15-.05.08-.1.17-.15.25-.07.12-.15.25-.22.37-.03.05-.05.1-.08.14-.15.25-.29.5-.44.75-.03.05-.06.1-.08.15-.2.36-.4.71-.6,1.07-.15.3-.31.59-.46.88-.15.28-.3.57-.45.86-.24.47-.48.95-.7,1.44-.19.4-.37.79-.55,1.19-.06.12-.12.25-.17.38-.14.3-.27.61-.4.91-.07.15-.13.29-.19.45-.03.07-.06.14-.09.2-.13.32-.27.65-.4.97-.07.17-.14.35-.21.52-.01.03-.02.05-.03.08-.53,1.04-.85,2.26-1.23,3.36-2.38,6.97-3.75,14.35-3.66,21.72.01,1.16.06,2.31.15,3.46ZM170.57,21.39,174.48,116.2c-.5-5.98-2-11.81-3.51-17.6-1.06-4.06-2.12-8.12-2.87-12.25-.76-4.22-1.07-8.51-1.39-12.78-.37-4.85-.49-9.73-.34-14.59.13-4.14.46-8.27,1.01-12.37.45-3.36,1.04-6.7,1.8-10,.58-2.52,1.26-5.02,2.05-7.48.76-2.36,1.66-4.56,2.75-6.79-3.17,3.82-6.2,7.76-9.07,11.81-3.19,4.5-6.2,9.13-9,13.88-2.84,4.8-5.36,9.73-7.84,14.72-7.95,16-13.83,32.66-12.25,48.78,1.69,17.25,13.31,33.25,26.76,47.48.52-.78,1.03-1.56,1.51-2.35.06-.09.11-.17.15-.26.02-.02.03-.05.05-.07.15-.25.3-.49.45-.74.03-.05.06-.1.09-.15.05-.08.1-.17.15-.25.07-.13.15-.25.22-.37.03-.05.05-.1.08-.14.15-.25.29-.51.43-.76.03-.05.06-.1.08-.15.2-.36.4-.71.59-1.08.15-.3.31-.59.45-.88.15-.29.3-.57.44-.86.23-.48.47-.96.69-1.44.19-.4.37-.79.54-1.19.06-.12.12-.25.17-.38.13-.3.27-.61.39-.92.07-.15.13-.29.19-.45.03-.07.06-.14.09-.21.13-.32.26-.65.39-.97.07-.17.14-.35.21-.52.01-.03.02-.05.03-.08.52-1.04.84-2.27,1.2-3.37,2.32-6.99,3.64-14.37,3.49-21.75-.02-1.16-.08-2.31-.18-3.46Z"/>
</svg>