<?xml version="1.0" encoding="UTF-8"?>
<svg id="Layer_1" data-name="Layer 1" xmlns="http://www.w3.org/2000/svg" viewBox="0 0 813.71 199.9">
  <defs>
    <style>
      .cls-1 {
        fill: #f16062;
      }

      .cls-2 {
        fill: #7c5ba6;
      }
    </style>
  </defs>
  <g>
    <path class="cls-1" d="M209.5,82.49c-2.57-6.38-6.07-11.91-10.51-16.5-4.44-4.67-9.81-8.33-16.03-10.97-6.23-2.72-13.08-4.05-20.55-4.05s-14.63,1.48-20.94,4.44c-6.23,2.88-11.52,7.24-15.8,13.08l-1.95-14.17h-19.07v137.69h23.51v-54.17c3.81,5.06,8.72,9.11,14.79,12.14,6.07,3.04,12.84,4.51,20.24,4.51s14.09-1.32,20.16-3.97c6.07-2.65,11.36-6.3,15.8-10.97,4.51-4.67,7.94-10.12,10.43-16.42,2.49-6.23,3.66-13,3.66-20.24s-1.25-14.09-3.74-20.39ZM189.26,115.11c-1.63,3.74-3.81,7.01-6.69,9.73-2.88,2.72-6.15,4.83-9.96,6.3-3.89,1.48-7.94,2.18-12.14,2.18s-8.33-.7-12.06-2.18c-3.74-1.48-7.08-3.58-9.89-6.3-2.88-2.72-5.14-5.99-6.69-9.73-1.63-3.74-2.49-7.86-2.49-12.22,0-4.59.86-8.72,2.49-12.45,1.56-3.74,3.81-7.01,6.69-9.73,2.8-2.72,6.15-4.83,9.89-6.3,3.74-1.48,7.78-2.26,12.06-2.26s8.25.78,12.14,2.26c3.81,1.48,7.08,3.58,9.96,6.3s5.06,5.99,6.69,9.73c1.63,3.74,2.41,7.86,2.41,12.45s-.78,8.48-2.41,12.22Z"/>
    <path class="cls-1" d="M316.48,54.32l-2.34,15.72c-4.36-6.23-9.96-10.97-16.66-14.17-6.77-3.27-14.4-4.9-22.96-4.9-7.86,0-15.02,1.4-21.48,4.13-6.38,2.72-11.83,6.38-16.27,11.05-4.51,4.67-7.94,10.12-10.35,16.42-2.33,6.3-3.58,13.08-3.58,20.31s1.25,14.01,3.74,20.24c2.41,6.3,5.92,11.75,10.35,16.42,4.51,4.67,9.81,8.33,15.96,10.97,6.15,2.65,12.92,3.97,20.32,3.97,8.09,0,15.49-1.56,22.03-4.83,6.54-3.27,11.83-7.55,15.8-13l1.17,14.79h21.56V54.32h-17.28ZM283.55,115.73c-12.3-2.02-20.63,10.27-28.33,17.82,1.79-3.27,3.74-6.38,5.45-9.73,7.39-14.4,7.24-20.31-4.2-32.22-2.57-2.72-5.45-5.37-8.33-7.78.47-.39.78-.08,1.25.16,8.41,4.67,19.38,12.76,29.34,8.48,7.94-3.42,13.31-11.05,19.38-16.81-3.97,7.63-11.44,17.59-10.51,26.62.86,8.72,10.9,16.66,16.73,22.42.39.31.78.54.54,1.09-6.31-3.66-14.01-8.87-21.33-10.04Z"/>
    <path class="cls-1" d="M408.73,52.45c-3.04-.31-6.07-.47-9.03-.47-3.5,0-7,.39-10.43,1.25-3.42.86-6.62,2.02-9.5,3.5-2.88,1.48-5.53,3.19-7.86,5.14-2.33,1.95-4.28,4.12-5.84,6.38l-2.33-13.93h-18.6v97.14h23.51v-42.19c0-5.06.7-9.81,2.18-14.17,1.48-4.44,3.66-8.17,6.54-11.36,2.8-3.19,6.3-5.68,10.35-7.55,4.12-1.95,8.64-2.88,13.7-2.88,5.84,0,11.13.93,15.96,2.72v-21.95c-2.72-.78-5.6-1.32-8.64-1.63Z"/>
    <path class="cls-1" d="M495.04,86.15l32.46-31.83h-26.62l-52.07,47.95V13.69h-23.51v137.77h23.51v-20.08l27.4-26.93,31.83,47.01h22.18l-35.18-65.3Z"/>
  </g>
  <path class="cls-1" d="M96.69,123.28c0,10.2-3.74,18.21-11.13,23.82-7.32,5.45-17.28,8.25-29.58,8.25s-22.88-2.72-30.9-8.17c-8.09-5.45-13.08-13.39-14.79-23.51l-.08-.7,23.74-6.15.16.78c.86,4.36,2.33,7.78,4.36,10.2,2.02,2.49,4.51,4.2,7.55,5.21,3.04,1.09,6.38,1.63,9.96,1.63,5.45,0,9.5-.93,12.06-2.8,2.49-1.87,3.74-4.13,3.74-6.77s-1.17-4.75-3.5-6.15c-2.49-1.56-6.54-2.88-12.06-3.89l-5.37-.93c-6.62-1.25-12.84-3.04-18.37-5.29-5.53-2.26-10.12-5.53-13.54-9.57-3.42-4.05-5.14-9.42-5.14-15.88,0-9.65,3.58-17.2,10.66-22.34,7.01-5.14,16.35-7.78,27.71-7.78,10.74,0,19.77,2.49,26.93,7.24,7.16,4.83,11.91,11.21,14.17,19.07l.16.7-.7.23-23.27,7.16-.16-.78c-1.01-4.67-2.96-8.02-5.92-9.88-3.04-1.95-6.77-2.96-11.21-2.96s-7.86.78-10.12,2.26c-2.26,1.48-3.27,3.42-3.27,5.99,0,2.8,1.09,4.75,3.42,6.15,2.49,1.4,5.84,2.49,10.12,3.27l5.37.93c7.16,1.25,13.78,3.04,19.61,5.14,5.92,2.1,10.66,5.21,14.09,9.18,3.5,4.05,5.29,9.57,5.29,16.35Z"/>
  <path class="cls-2" d="M801.01,19.91c-10.51,0-19.3,1.63-26.39,4.75-7.01,3.19-12.92,7.39-17.67,12.61-4.67,5.29-8.56,11.21-11.52,17.9-2.96,6.69-5.6,13.47-7.86,20.47-2.26,7.01-4.44,13.85-6.54,20.55-2.02,6.62-4.67,12.61-7.78,17.82-3.11,5.29-6.93,9.5-11.52,12.61-4.59,3.19-10.51,4.75-17.75,4.75-4.44,0-8.87-.31-13.47-1.09v21.72c2.65.39,5.29.7,8.1.93,2.8.31,5.76.47,8.8.47,9.73,0,17.9-1.63,24.6-4.83,6.69-3.11,12.38-7.39,16.97-12.61,4.67-5.21,8.56-11.21,11.68-17.82,3.11-6.69,5.92-13.54,8.41-20.55,2.41-7,4.83-13.78,7.08-20.47,2.26-6.69,4.9-12.61,7.94-17.9,3.04-5.21,6.69-9.42,10.97-12.61,4.28-3.11,9.65-4.75,16.11-4.75h2.34v-21.95h-2.49ZM677.02,58.68c-3.58-8.33-8.56-15.64-14.94-21.79-6.3-6.15-13.7-10.97-22.1-14.55-8.41-3.5-17.43-5.29-27.01-5.29s-18.6,1.79-27.09,5.29c-8.48,3.58-15.88,8.41-22.18,14.55-6.23,6.15-11.21,13.47-14.94,21.79-3.66,8.33-5.53,17.28-5.53,26.93s1.87,18.29,5.53,26.7c3.74,8.33,8.72,15.64,14.94,21.79,6.3,6.23,13.7,11.21,22.18,14.79,8.48,3.66,17.51,5.45,27.09,5.45s18.6-1.79,27.01-5.45c8.41-3.58,15.8-8.56,22.1-14.79,6.38-6.15,11.36-13.47,14.94-21.79,3.66-8.41,5.45-17.28,5.45-26.7s-1.79-18.6-5.45-26.93ZM655.23,103.35c-2.41,5.53-5.76,10.35-9.96,14.48-4.2,4.12-9.03,7.39-14.63,9.81-5.53,2.41-11.44,3.58-17.67,3.58s-12.3-1.17-17.9-3.58c-5.53-2.41-10.43-5.68-14.55-9.81-4.12-4.13-7.39-8.95-9.89-14.48-2.49-5.53-3.66-11.44-3.66-17.75s1.17-12.14,3.66-17.75c2.49-5.53,5.76-10.35,9.89-14.4,4.13-4.13,9.03-7.32,14.55-9.73,5.6-2.41,11.52-3.58,17.9-3.58s12.14,1.17,17.67,3.58c5.6,2.41,10.43,5.6,14.63,9.73,4.2,4.05,7.55,8.87,9.96,14.4,2.34,5.6,3.58,11.52,3.58,17.75s-1.25,12.22-3.58,17.75Z"/>
</svg>